%TF.GenerationSoftware,KiCad,Pcbnew,(5.1.10)-1*%
%TF.CreationDate,2021-09-03T22:45:51+03:00*%
%TF.ProjectId,toolhead_pcb,746f6f6c-6865-4616-945f-7063622e6b69,rev?*%
%TF.SameCoordinates,Original*%
%TF.FileFunction,Copper,L1,Top*%
%TF.FilePolarity,Positive*%
%FSLAX46Y46*%
G04 Gerber Fmt 4.6, Leading zero omitted, Abs format (unit mm)*
G04 Created by KiCad (PCBNEW (5.1.10)-1) date 2021-09-03 22:45:51*
%MOMM*%
%LPD*%
G01*
G04 APERTURE LIST*
%TA.AperFunction,ComponentPad*%
%ADD10O,2.020000X1.500000*%
%TD*%
%TA.AperFunction,ComponentPad*%
%ADD11O,1.500000X2.020000*%
%TD*%
%TA.AperFunction,ComponentPad*%
%ADD12C,1.500000*%
%TD*%
%TA.AperFunction,Conductor*%
%ADD13C,1.500000*%
%TD*%
%TA.AperFunction,Conductor*%
%ADD14C,1.000000*%
%TD*%
%TA.AperFunction,NonConductor*%
%ADD15C,0.254000*%
%TD*%
%TA.AperFunction,NonConductor*%
%ADD16C,0.100000*%
%TD*%
G04 APERTURE END LIST*
D10*
%TO.P,J6,2*%
%TO.N,COOLING_FAN+*%
X134000000Y-107500000D03*
%TO.P,J6,1*%
%TO.N,COOLING_FAN-*%
%TA.AperFunction,ComponentPad*%
G36*
G01*
X133240000Y-103750000D02*
X134760000Y-103750000D01*
G75*
G02*
X135010000Y-104000000I0J-250000D01*
G01*
X135010000Y-105000000D01*
G75*
G02*
X134760000Y-105250000I-250000J0D01*
G01*
X133240000Y-105250000D01*
G75*
G02*
X132990000Y-105000000I0J250000D01*
G01*
X132990000Y-104000000D01*
G75*
G02*
X133240000Y-103750000I250000J0D01*
G01*
G37*
%TD.AperFunction*%
%TD*%
%TO.P,J3,1*%
%TO.N,COOLING_FAN-*%
%TA.AperFunction,ComponentPad*%
G36*
G01*
X115760000Y-108250000D02*
X114240000Y-108250000D01*
G75*
G02*
X113990000Y-108000000I0J250000D01*
G01*
X113990000Y-107000000D01*
G75*
G02*
X114240000Y-106750000I250000J0D01*
G01*
X115760000Y-106750000D01*
G75*
G02*
X116010000Y-107000000I0J-250000D01*
G01*
X116010000Y-108000000D01*
G75*
G02*
X115760000Y-108250000I-250000J0D01*
G01*
G37*
%TD.AperFunction*%
%TO.P,J3,2*%
%TO.N,COOLING_FAN+*%
X115000000Y-104500000D03*
%TD*%
D11*
%TO.P,J4,2*%
%TO.N,HOTEND_FAN+*%
X131750000Y-96250000D03*
%TO.P,J4,1*%
%TO.N,HOTEND_FAN-*%
%TA.AperFunction,ComponentPad*%
G36*
G01*
X135500000Y-95490000D02*
X135500000Y-97010000D01*
G75*
G02*
X135250000Y-97260000I-250000J0D01*
G01*
X134250000Y-97260000D01*
G75*
G02*
X134000000Y-97010000I0J250000D01*
G01*
X134000000Y-95490000D01*
G75*
G02*
X134250000Y-95240000I250000J0D01*
G01*
X135250000Y-95240000D01*
G75*
G02*
X135500000Y-95490000I0J-250000D01*
G01*
G37*
%TD.AperFunction*%
%TD*%
D10*
%TO.P,J7,2*%
%TO.N,HOTEND_THERMISTOR-*%
X106750000Y-104250000D03*
%TO.P,J7,1*%
%TO.N,HOTEND_THERMISTOR+*%
%TA.AperFunction,ComponentPad*%
G36*
G01*
X105990000Y-100500000D02*
X107510000Y-100500000D01*
G75*
G02*
X107760000Y-100750000I0J-250000D01*
G01*
X107760000Y-101750000D01*
G75*
G02*
X107510000Y-102000000I-250000J0D01*
G01*
X105990000Y-102000000D01*
G75*
G02*
X105740000Y-101750000I0J250000D01*
G01*
X105740000Y-100750000D01*
G75*
G02*
X105990000Y-100500000I250000J0D01*
G01*
G37*
%TD.AperFunction*%
%TD*%
%TO.P,J8,2*%
%TO.N,HOTEND_HEATER-*%
X106750000Y-115500000D03*
%TO.P,J8,1*%
%TO.N,HOTEND_HEATER+*%
%TA.AperFunction,ComponentPad*%
G36*
G01*
X105990000Y-111750000D02*
X107510000Y-111750000D01*
G75*
G02*
X107760000Y-112000000I0J-250000D01*
G01*
X107760000Y-113000000D01*
G75*
G02*
X107510000Y-113250000I-250000J0D01*
G01*
X105990000Y-113250000D01*
G75*
G02*
X105740000Y-113000000I0J250000D01*
G01*
X105740000Y-112000000D01*
G75*
G02*
X105990000Y-111750000I250000J0D01*
G01*
G37*
%TD.AperFunction*%
%TD*%
D11*
%TO.P,J9,4*%
%TO.N,STEPPER_B2*%
X114250000Y-96250000D03*
%TO.P,J9,3*%
%TO.N,STEPPER_B1*%
X117250000Y-96250000D03*
%TO.P,J9,2*%
%TO.N,STEPPER_A1*%
X120250000Y-96250000D03*
%TO.P,J9,1*%
%TO.N,STEPPER_A2*%
%TA.AperFunction,ComponentPad*%
G36*
G01*
X124000000Y-95490000D02*
X124000000Y-97010000D01*
G75*
G02*
X123750000Y-97260000I-250000J0D01*
G01*
X122750000Y-97260000D01*
G75*
G02*
X122500000Y-97010000I0J250000D01*
G01*
X122500000Y-95490000D01*
G75*
G02*
X122750000Y-95240000I250000J0D01*
G01*
X123750000Y-95240000D01*
G75*
G02*
X124000000Y-95490000I0J-250000D01*
G01*
G37*
%TD.AperFunction*%
%TD*%
D10*
%TO.P,J1,2*%
%TO.N,MAGPROBE+*%
X142250000Y-112500000D03*
%TO.P,J1,1*%
%TO.N,MAGPROBE-*%
%TA.AperFunction,ComponentPad*%
G36*
G01*
X143010000Y-116250000D02*
X141490000Y-116250000D01*
G75*
G02*
X141240000Y-116000000I0J250000D01*
G01*
X141240000Y-115000000D01*
G75*
G02*
X141490000Y-114750000I250000J0D01*
G01*
X143010000Y-114750000D01*
G75*
G02*
X143260000Y-115000000I0J-250000D01*
G01*
X143260000Y-116000000D01*
G75*
G02*
X143010000Y-116250000I-250000J0D01*
G01*
G37*
%TD.AperFunction*%
%TD*%
%TO.P,J2,2*%
%TO.N,X_ENDSTOP+*%
X142250000Y-101250000D03*
%TO.P,J2,1*%
%TO.N,X_ENDSTOP-*%
%TA.AperFunction,ComponentPad*%
G36*
G01*
X143010000Y-105000000D02*
X141490000Y-105000000D01*
G75*
G02*
X141240000Y-104750000I0J250000D01*
G01*
X141240000Y-103750000D01*
G75*
G02*
X141490000Y-103500000I250000J0D01*
G01*
X143010000Y-103500000D01*
G75*
G02*
X143260000Y-103750000I0J-250000D01*
G01*
X143260000Y-104750000D01*
G75*
G02*
X143010000Y-105000000I-250000J0D01*
G01*
G37*
%TD.AperFunction*%
%TD*%
D12*
%TO.P,J5,16*%
%TO.N,HOTEND_HEATER+*%
X114000000Y-114500000D03*
%TO.P,J5,15*%
%TO.N,HOTEND_THERMISTOR+*%
X117000000Y-114500000D03*
%TO.P,J5,14*%
%TO.N,STEPPER_B1*%
X120000000Y-114500000D03*
%TO.P,J5,13*%
%TO.N,STEPPER_A2*%
X123000000Y-114500000D03*
%TO.P,J5,12*%
%TO.N,HOTEND_FAN+*%
X126000000Y-114500000D03*
%TO.P,J5,11*%
%TO.N,COOLING_FAN+*%
X129000000Y-114500000D03*
%TO.P,J5,10*%
%TO.N,X_ENDSTOP+*%
X132000000Y-114500000D03*
%TO.P,J5,9*%
%TO.N,MAGPROBE+*%
X135000000Y-114500000D03*
%TO.P,J5,8*%
%TO.N,HOTEND_HEATER-*%
X114000000Y-117500000D03*
%TO.P,J5,7*%
%TO.N,HOTEND_THERMISTOR-*%
X117000000Y-117500000D03*
%TO.P,J5,6*%
%TO.N,STEPPER_B2*%
X120000000Y-117500000D03*
%TO.P,J5,5*%
%TO.N,STEPPER_A1*%
X123000000Y-117500000D03*
%TO.P,J5,4*%
%TO.N,HOTEND_FAN-*%
X126000000Y-117500000D03*
%TO.P,J5,3*%
%TO.N,COOLING_FAN-*%
X129000000Y-117500000D03*
%TO.P,J5,2*%
%TO.N,X_ENDSTOP-*%
X132000000Y-117500000D03*
%TO.P,J5,1*%
%TO.N,MAGPROBE-*%
%TA.AperFunction,ComponentPad*%
G36*
G01*
X135750000Y-117000000D02*
X135750000Y-118000000D01*
G75*
G02*
X135500000Y-118250000I-250000J0D01*
G01*
X134500000Y-118250000D01*
G75*
G02*
X134250000Y-118000000I0J250000D01*
G01*
X134250000Y-117000000D01*
G75*
G02*
X134500000Y-116750000I250000J0D01*
G01*
X135500000Y-116750000D01*
G75*
G02*
X135750000Y-117000000I0J-250000D01*
G01*
G37*
%TD.AperFunction*%
%TD*%
D13*
%TO.N,HOTEND_HEATER-*%
X114000000Y-117500000D02*
X113414999Y-116914999D01*
X108164999Y-116914999D02*
X106750000Y-115500000D01*
X113414999Y-116914999D02*
X108164999Y-116914999D01*
%TO.N,HOTEND_HEATER+*%
X109260001Y-115010001D02*
X106750000Y-112500000D01*
X113489999Y-115010001D02*
X109260001Y-115010001D01*
X114000000Y-114500000D02*
X113489999Y-115010001D01*
D14*
%TO.N,X_ENDSTOP-*%
X133500000Y-113500000D02*
X134500000Y-112500000D01*
X134500000Y-112500000D02*
X137000000Y-112500000D01*
X132000000Y-117500000D02*
X133500000Y-116000000D01*
X133500000Y-116000000D02*
X133500000Y-113500000D01*
X137000000Y-112500000D02*
X138750000Y-110750000D01*
X138750000Y-110750000D02*
X138750000Y-106250000D01*
X140750000Y-104250000D02*
X142250000Y-104250000D01*
X138750000Y-106250000D02*
X140750000Y-104250000D01*
%TO.N,X_ENDSTOP+*%
X132000000Y-114500000D02*
X132000000Y-112500000D01*
X132000000Y-112500000D02*
X134500000Y-110000000D01*
X134500000Y-109984198D02*
X137250000Y-107234198D01*
X134500000Y-110000000D02*
X134500000Y-109984198D01*
X137250000Y-107234198D02*
X137250000Y-105750000D01*
X141750000Y-101250000D02*
X142250000Y-101250000D01*
X137250000Y-105750000D02*
X141750000Y-101250000D01*
%TO.N,HOTEND_THERMISTOR-*%
X117000000Y-117500000D02*
X115500000Y-116000000D01*
X115500000Y-116000000D02*
X115500000Y-113750000D01*
X115500000Y-113750000D02*
X114250000Y-112500000D01*
X114250000Y-112500000D02*
X112250000Y-112500000D01*
X112250000Y-112500000D02*
X110250000Y-110500000D01*
X110250000Y-110500000D02*
X110250000Y-106250000D01*
X108250000Y-104250000D02*
X106750000Y-104250000D01*
X110250000Y-106250000D02*
X108250000Y-104250000D01*
%TO.N,HOTEND_THERMISTOR+*%
X107500000Y-101250000D02*
X106750000Y-101250000D01*
X111750000Y-105500000D02*
X107500000Y-101250000D01*
X111750000Y-107234198D02*
X111750000Y-105500000D01*
X117000000Y-112484198D02*
X111750000Y-107234198D01*
X117000000Y-114500000D02*
X117000000Y-112484198D01*
%TO.N,HOTEND_FAN-*%
X134750000Y-98250000D02*
X134750000Y-96250000D01*
X129000000Y-104000000D02*
X134750000Y-98250000D01*
X129000000Y-109500000D02*
X129000000Y-104000000D01*
X127500000Y-111000000D02*
X129000000Y-109500000D01*
X127500000Y-116000000D02*
X127500000Y-111000000D01*
X126000000Y-117500000D02*
X127500000Y-116000000D01*
%TO.N,HOTEND_FAN+*%
X126000000Y-114500000D02*
X126000000Y-110500000D01*
X126000000Y-110500000D02*
X127500000Y-109000000D01*
X127500000Y-109000000D02*
X127500000Y-103500000D01*
X131750000Y-99250000D02*
X131750000Y-96250000D01*
X127500000Y-103500000D02*
X131750000Y-99250000D01*
%TO.N,MAGPROBE-*%
X135000000Y-117500000D02*
X138500000Y-117500000D01*
X140500000Y-115500000D02*
X142250000Y-115500000D01*
X138500000Y-117500000D02*
X140500000Y-115500000D01*
%TO.N,STEPPER_B2*%
X118500000Y-112000000D02*
X118500000Y-116000000D01*
X117000000Y-110500000D02*
X118500000Y-112000000D01*
X117000000Y-99250000D02*
X117000000Y-110500000D01*
X114250000Y-96500000D02*
X117000000Y-99250000D01*
X118500000Y-116000000D02*
X120000000Y-117500000D01*
X114250000Y-96250000D02*
X114250000Y-96500000D01*
%TO.N,STEPPER_A2*%
X123000000Y-114500000D02*
X123000000Y-110500000D01*
X123000000Y-110500000D02*
X121500000Y-109000000D01*
X121500000Y-98000000D02*
X123250000Y-96250000D01*
X121500000Y-109000000D02*
X121500000Y-98000000D01*
%TO.N,COOLING_FAN-*%
X129000000Y-117500000D02*
X130500000Y-116000000D01*
X130500000Y-116000000D02*
X130500000Y-112000000D01*
X130500000Y-112000000D02*
X132000000Y-110500000D01*
X132000000Y-106500000D02*
X134000000Y-104500000D01*
X132000000Y-110500000D02*
X132000000Y-106500000D01*
%TO.N,MAGPROBE+*%
X135000000Y-114500000D02*
X136000000Y-115500000D01*
X136000000Y-115500000D02*
X138250000Y-115500000D01*
X141250000Y-112500000D02*
X142250000Y-112500000D01*
X138250000Y-115500000D02*
X141250000Y-112500000D01*
%TO.N,STEPPER_B1*%
X120000000Y-114500000D02*
X120000000Y-111500000D01*
X120000000Y-111500000D02*
X118500000Y-110000000D01*
X118500000Y-97500000D02*
X117250000Y-96250000D01*
X118500000Y-110000000D02*
X118500000Y-97500000D01*
%TO.N,STEPPER_A1*%
X123000000Y-117500000D02*
X121500000Y-116000000D01*
X121500000Y-116000000D02*
X121500000Y-111000000D01*
X121500000Y-111000000D02*
X120000000Y-109500000D01*
X120000000Y-96500000D02*
X120250000Y-96250000D01*
X120000000Y-109500000D02*
X120000000Y-96500000D01*
%TO.N,COOLING_FAN+*%
X129000000Y-114500000D02*
X129000000Y-111500000D01*
X129000000Y-111500000D02*
X130500000Y-110000000D01*
X130500000Y-110000000D02*
X130500000Y-104500000D01*
X130500000Y-104500000D02*
X132250000Y-102750000D01*
X135234198Y-102750000D02*
X136000000Y-103515802D01*
X132250000Y-102750000D02*
X135234198Y-102750000D01*
X136000000Y-105500000D02*
X134000000Y-107500000D01*
X136000000Y-103515802D02*
X136000000Y-105500000D01*
%TD*%
D15*
X142648126Y-93226714D02*
X143271572Y-93414943D01*
X143846579Y-93720681D01*
X144351247Y-94132279D01*
X144766362Y-94634067D01*
X145076105Y-95206924D01*
X145268682Y-95829039D01*
X145340001Y-96507594D01*
X145340000Y-120532418D01*
X145340001Y-120532428D01*
X145340000Y-122469743D01*
X145270453Y-123226610D01*
X145072390Y-123928892D01*
X144749664Y-124583316D01*
X144313082Y-125167969D01*
X143777265Y-125663275D01*
X143160158Y-126052639D01*
X142482431Y-126323025D01*
X141766776Y-126465378D01*
X141037169Y-126474929D01*
X140318029Y-126351358D01*
X139633460Y-126098807D01*
X139006373Y-125725729D01*
X138457771Y-125244619D01*
X138006036Y-124671596D01*
X137666288Y-124025840D01*
X137449911Y-123328990D01*
X137361083Y-122578495D01*
X137359985Y-122494581D01*
X137359947Y-122483721D01*
X137357034Y-122455046D01*
X137357235Y-122426219D01*
X137356335Y-122417047D01*
X137341918Y-122279872D01*
X139115000Y-122279872D01*
X139115000Y-122720128D01*
X139200890Y-123151925D01*
X139369369Y-123558669D01*
X139613962Y-123924729D01*
X139925271Y-124236038D01*
X140291331Y-124480631D01*
X140698075Y-124649110D01*
X141129872Y-124735000D01*
X141570128Y-124735000D01*
X142001925Y-124649110D01*
X142408669Y-124480631D01*
X142774729Y-124236038D01*
X143086038Y-123924729D01*
X143330631Y-123558669D01*
X143499110Y-123151925D01*
X143585000Y-122720128D01*
X143585000Y-122279872D01*
X143499110Y-121848075D01*
X143330631Y-121441331D01*
X143086038Y-121075271D01*
X142774729Y-120763962D01*
X142408669Y-120519369D01*
X142001925Y-120350890D01*
X141570128Y-120265000D01*
X141129872Y-120265000D01*
X140698075Y-120350890D01*
X140291331Y-120519369D01*
X139925271Y-120763962D01*
X139613962Y-121075271D01*
X139369369Y-121441331D01*
X139200890Y-121848075D01*
X139115000Y-122279872D01*
X137341918Y-122279872D01*
X137315534Y-122028855D01*
X137303514Y-121970299D01*
X137292298Y-121911498D01*
X137289634Y-121902677D01*
X137174210Y-121529802D01*
X137151025Y-121474647D01*
X137128621Y-121419194D01*
X137124294Y-121411058D01*
X137124294Y-121411057D01*
X137124291Y-121411053D01*
X136938643Y-121067702D01*
X136905187Y-121018101D01*
X136872437Y-120968054D01*
X136866613Y-120960913D01*
X136617806Y-120660158D01*
X136575371Y-120618019D01*
X136533508Y-120575269D01*
X136526407Y-120569396D01*
X136223923Y-120322695D01*
X136174107Y-120289598D01*
X136124741Y-120255795D01*
X136116635Y-120251413D01*
X135771993Y-120068163D01*
X135716687Y-120045368D01*
X135661704Y-120021802D01*
X135652901Y-120019077D01*
X135279230Y-119906259D01*
X135220542Y-119894639D01*
X135162039Y-119882203D01*
X135152874Y-119881240D01*
X134764405Y-119843150D01*
X134764402Y-119843150D01*
X134732419Y-119840000D01*
X114267581Y-119840000D01*
X114238627Y-119842852D01*
X114226219Y-119842765D01*
X114217047Y-119843665D01*
X113828855Y-119884466D01*
X113770299Y-119896486D01*
X113711498Y-119907702D01*
X113702677Y-119910366D01*
X113329802Y-120025790D01*
X113274647Y-120048975D01*
X113219194Y-120071379D01*
X113211062Y-120075704D01*
X113211057Y-120075706D01*
X113211053Y-120075709D01*
X112867702Y-120261357D01*
X112818101Y-120294813D01*
X112768054Y-120327563D01*
X112760913Y-120333387D01*
X112460158Y-120582194D01*
X112418019Y-120624629D01*
X112375269Y-120666492D01*
X112369396Y-120673593D01*
X112122695Y-120976077D01*
X112089598Y-121025893D01*
X112055795Y-121075259D01*
X112051413Y-121083365D01*
X111868163Y-121428007D01*
X111845368Y-121483313D01*
X111821802Y-121538296D01*
X111819077Y-121547099D01*
X111706259Y-121920770D01*
X111694639Y-121979458D01*
X111682203Y-122037961D01*
X111681240Y-122047126D01*
X111643150Y-122435595D01*
X111643150Y-122435984D01*
X111642769Y-122439609D01*
X111570453Y-123226610D01*
X111372390Y-123928892D01*
X111049664Y-124583316D01*
X110613082Y-125167969D01*
X110077265Y-125663275D01*
X109460158Y-126052639D01*
X108782431Y-126323025D01*
X108066776Y-126465378D01*
X107337169Y-126474929D01*
X106618029Y-126351358D01*
X105933460Y-126098807D01*
X105306373Y-125725729D01*
X104757771Y-125244619D01*
X104306036Y-124671596D01*
X103966288Y-124025840D01*
X103749911Y-123328990D01*
X103661083Y-122578495D01*
X103660000Y-122495718D01*
X103660000Y-122279872D01*
X105415000Y-122279872D01*
X105415000Y-122720128D01*
X105500890Y-123151925D01*
X105669369Y-123558669D01*
X105913962Y-123924729D01*
X106225271Y-124236038D01*
X106591331Y-124480631D01*
X106998075Y-124649110D01*
X107429872Y-124735000D01*
X107870128Y-124735000D01*
X108301925Y-124649110D01*
X108708669Y-124480631D01*
X109074729Y-124236038D01*
X109386038Y-123924729D01*
X109630631Y-123558669D01*
X109799110Y-123151925D01*
X109885000Y-122720128D01*
X109885000Y-122279872D01*
X109799110Y-121848075D01*
X109630631Y-121441331D01*
X109386038Y-121075271D01*
X109074729Y-120763962D01*
X108708669Y-120519369D01*
X108301925Y-120350890D01*
X107870128Y-120265000D01*
X107429872Y-120265000D01*
X106998075Y-120350890D01*
X106591331Y-120519369D01*
X106225271Y-120763962D01*
X105913962Y-121075271D01*
X105669369Y-121441331D01*
X105500890Y-121848075D01*
X105415000Y-122279872D01*
X103660000Y-122279872D01*
X103660000Y-104250000D01*
X105098299Y-104250000D01*
X105125040Y-104521507D01*
X105204236Y-104782581D01*
X105332843Y-105023188D01*
X105505919Y-105234081D01*
X105716812Y-105407157D01*
X105957419Y-105535764D01*
X106218493Y-105614960D01*
X106421963Y-105635000D01*
X107078037Y-105635000D01*
X107281507Y-105614960D01*
X107542581Y-105535764D01*
X107783188Y-105407157D01*
X107793535Y-105398666D01*
X108409717Y-106014849D01*
X108339555Y-106028805D01*
X108108429Y-106124541D01*
X107900422Y-106263527D01*
X107723527Y-106440422D01*
X107584541Y-106648429D01*
X107488805Y-106879555D01*
X107440000Y-107124916D01*
X107440000Y-107375084D01*
X107488805Y-107620445D01*
X107584541Y-107851571D01*
X107723527Y-108059578D01*
X107900422Y-108236473D01*
X108107742Y-108375000D01*
X107900422Y-108513527D01*
X107723527Y-108690422D01*
X107584541Y-108898429D01*
X107488805Y-109129555D01*
X107440000Y-109374916D01*
X107440000Y-109625084D01*
X107488805Y-109870445D01*
X107584541Y-110101571D01*
X107723527Y-110309578D01*
X107900422Y-110486473D01*
X108108429Y-110625459D01*
X108339555Y-110721195D01*
X108584916Y-110770000D01*
X108835084Y-110770000D01*
X109080445Y-110721195D01*
X109129302Y-110700958D01*
X109131423Y-110722498D01*
X109196324Y-110936446D01*
X109301716Y-111133623D01*
X109443551Y-111306449D01*
X109486865Y-111341996D01*
X110629726Y-112484857D01*
X110462376Y-112554176D01*
X110276480Y-112678388D01*
X110118388Y-112836480D01*
X109994176Y-113022376D01*
X109908617Y-113228933D01*
X109865000Y-113448212D01*
X109865000Y-113625001D01*
X109833686Y-113625001D01*
X108398072Y-112189387D01*
X108398072Y-112000000D01*
X108381008Y-111826746D01*
X108330472Y-111660150D01*
X108248405Y-111506614D01*
X108137962Y-111372038D01*
X108003386Y-111261595D01*
X107849850Y-111179528D01*
X107683254Y-111128992D01*
X107510000Y-111111928D01*
X106786837Y-111111928D01*
X106750000Y-111108300D01*
X106713163Y-111111928D01*
X105990000Y-111111928D01*
X105816746Y-111128992D01*
X105650150Y-111179528D01*
X105496614Y-111261595D01*
X105362038Y-111372038D01*
X105251595Y-111506614D01*
X105169528Y-111660150D01*
X105118992Y-111826746D01*
X105101928Y-112000000D01*
X105101928Y-113000000D01*
X105118992Y-113173254D01*
X105169528Y-113339850D01*
X105251595Y-113493386D01*
X105362038Y-113627962D01*
X105496614Y-113738405D01*
X105650150Y-113820472D01*
X105816746Y-113871008D01*
X105990000Y-113888072D01*
X106179387Y-113888072D01*
X106407718Y-114116403D01*
X106218493Y-114135040D01*
X105957419Y-114214236D01*
X105716812Y-114342843D01*
X105505919Y-114515919D01*
X105332843Y-114726812D01*
X105204236Y-114967419D01*
X105125040Y-115228493D01*
X105098299Y-115500000D01*
X105125040Y-115771507D01*
X105204236Y-116032581D01*
X105332843Y-116273188D01*
X105505919Y-116484081D01*
X105716812Y-116657157D01*
X105957419Y-116785764D01*
X106129183Y-116837868D01*
X107137549Y-117846235D01*
X107180918Y-117899080D01*
X107233763Y-117942449D01*
X107233765Y-117942451D01*
X107303889Y-118000000D01*
X107391811Y-118072156D01*
X107490689Y-118125007D01*
X107488805Y-118129555D01*
X107440000Y-118374916D01*
X107440000Y-118625084D01*
X107488805Y-118870445D01*
X107584541Y-119101571D01*
X107723527Y-119309578D01*
X107900422Y-119486473D01*
X108108429Y-119625459D01*
X108339555Y-119721195D01*
X108584916Y-119770000D01*
X108835084Y-119770000D01*
X109080445Y-119721195D01*
X109311571Y-119625459D01*
X109519578Y-119486473D01*
X109696473Y-119309578D01*
X109835459Y-119101571D01*
X109931195Y-118870445D01*
X109980000Y-118625084D01*
X109980000Y-118374916D01*
X109965098Y-118299999D01*
X112841314Y-118299999D01*
X113117114Y-118575799D01*
X113173965Y-118613786D01*
X113226812Y-118657156D01*
X113287103Y-118689382D01*
X113343957Y-118727371D01*
X113407128Y-118753537D01*
X113467418Y-118785763D01*
X113532838Y-118805608D01*
X113596011Y-118831775D01*
X113663075Y-118845115D01*
X113728492Y-118864959D01*
X113796521Y-118871659D01*
X113863589Y-118885000D01*
X113931972Y-118885000D01*
X113999999Y-118891700D01*
X114068026Y-118885000D01*
X114136411Y-118885000D01*
X114203481Y-118871659D01*
X114271506Y-118864959D01*
X114336919Y-118845116D01*
X114403989Y-118831775D01*
X114467167Y-118805606D01*
X114532580Y-118785763D01*
X114592864Y-118753541D01*
X114656043Y-118727371D01*
X114712902Y-118689379D01*
X114773187Y-118657156D01*
X114826028Y-118613790D01*
X114882886Y-118575799D01*
X114931241Y-118527444D01*
X114984080Y-118484080D01*
X115027444Y-118431241D01*
X115075799Y-118382886D01*
X115113790Y-118326028D01*
X115157156Y-118273187D01*
X115189379Y-118212902D01*
X115227371Y-118156043D01*
X115253541Y-118092864D01*
X115285763Y-118032580D01*
X115305606Y-117967167D01*
X115331775Y-117903989D01*
X115345116Y-117836919D01*
X115364959Y-117771506D01*
X115371659Y-117703481D01*
X115385000Y-117636411D01*
X115385000Y-117568026D01*
X115391700Y-117499999D01*
X115391354Y-117496485D01*
X115635788Y-117740920D01*
X115668225Y-117903989D01*
X115772629Y-118156043D01*
X115924201Y-118382886D01*
X116117114Y-118575799D01*
X116343957Y-118727371D01*
X116596011Y-118831775D01*
X116863589Y-118885000D01*
X117136411Y-118885000D01*
X117403989Y-118831775D01*
X117656043Y-118727371D01*
X117882886Y-118575799D01*
X118075799Y-118382886D01*
X118227371Y-118156043D01*
X118331775Y-117903989D01*
X118385000Y-117636411D01*
X118385000Y-117490131D01*
X118635788Y-117740920D01*
X118668225Y-117903989D01*
X118772629Y-118156043D01*
X118924201Y-118382886D01*
X119117114Y-118575799D01*
X119343957Y-118727371D01*
X119596011Y-118831775D01*
X119863589Y-118885000D01*
X120136411Y-118885000D01*
X120403989Y-118831775D01*
X120656043Y-118727371D01*
X120882886Y-118575799D01*
X121075799Y-118382886D01*
X121227371Y-118156043D01*
X121331775Y-117903989D01*
X121385000Y-117636411D01*
X121385000Y-117490131D01*
X121635788Y-117740920D01*
X121668225Y-117903989D01*
X121772629Y-118156043D01*
X121924201Y-118382886D01*
X122117114Y-118575799D01*
X122343957Y-118727371D01*
X122596011Y-118831775D01*
X122863589Y-118885000D01*
X123136411Y-118885000D01*
X123403989Y-118831775D01*
X123656043Y-118727371D01*
X123882886Y-118575799D01*
X124075799Y-118382886D01*
X124227371Y-118156043D01*
X124331775Y-117903989D01*
X124385000Y-117636411D01*
X124385000Y-117363589D01*
X124331775Y-117096011D01*
X124227371Y-116843957D01*
X124075799Y-116617114D01*
X123882886Y-116424201D01*
X123656043Y-116272629D01*
X123403989Y-116168225D01*
X123240920Y-116135788D01*
X122990131Y-115885000D01*
X123136411Y-115885000D01*
X123403989Y-115831775D01*
X123656043Y-115727371D01*
X123882886Y-115575799D01*
X124075799Y-115382886D01*
X124227371Y-115156043D01*
X124331775Y-114903989D01*
X124385000Y-114636411D01*
X124385000Y-114363589D01*
X124615000Y-114363589D01*
X124615000Y-114636411D01*
X124668225Y-114903989D01*
X124772629Y-115156043D01*
X124924201Y-115382886D01*
X125117114Y-115575799D01*
X125343957Y-115727371D01*
X125596011Y-115831775D01*
X125863589Y-115885000D01*
X126009868Y-115885000D01*
X125759080Y-116135788D01*
X125596011Y-116168225D01*
X125343957Y-116272629D01*
X125117114Y-116424201D01*
X124924201Y-116617114D01*
X124772629Y-116843957D01*
X124668225Y-117096011D01*
X124615000Y-117363589D01*
X124615000Y-117636411D01*
X124668225Y-117903989D01*
X124772629Y-118156043D01*
X124924201Y-118382886D01*
X125117114Y-118575799D01*
X125343957Y-118727371D01*
X125596011Y-118831775D01*
X125863589Y-118885000D01*
X126136411Y-118885000D01*
X126403989Y-118831775D01*
X126656043Y-118727371D01*
X126882886Y-118575799D01*
X127075799Y-118382886D01*
X127227371Y-118156043D01*
X127331775Y-117903989D01*
X127364212Y-117740920D01*
X127615000Y-117490132D01*
X127615000Y-117636411D01*
X127668225Y-117903989D01*
X127772629Y-118156043D01*
X127924201Y-118382886D01*
X128117114Y-118575799D01*
X128343957Y-118727371D01*
X128596011Y-118831775D01*
X128863589Y-118885000D01*
X129136411Y-118885000D01*
X129403989Y-118831775D01*
X129656043Y-118727371D01*
X129882886Y-118575799D01*
X130075799Y-118382886D01*
X130227371Y-118156043D01*
X130331775Y-117903989D01*
X130364212Y-117740920D01*
X130615000Y-117490132D01*
X130615000Y-117636411D01*
X130668225Y-117903989D01*
X130772629Y-118156043D01*
X130924201Y-118382886D01*
X131117114Y-118575799D01*
X131343957Y-118727371D01*
X131596011Y-118831775D01*
X131863589Y-118885000D01*
X132136411Y-118885000D01*
X132403989Y-118831775D01*
X132656043Y-118727371D01*
X132882886Y-118575799D01*
X133075799Y-118382886D01*
X133227371Y-118156043D01*
X133331775Y-117903989D01*
X133364212Y-117740920D01*
X133611928Y-117493204D01*
X133611928Y-118000000D01*
X133628992Y-118173254D01*
X133679528Y-118339850D01*
X133761595Y-118493386D01*
X133872038Y-118627962D01*
X134006614Y-118738405D01*
X134160150Y-118820472D01*
X134326746Y-118871008D01*
X134500000Y-118888072D01*
X135500000Y-118888072D01*
X135673254Y-118871008D01*
X135839850Y-118820472D01*
X135993386Y-118738405D01*
X136119386Y-118635000D01*
X138444249Y-118635000D01*
X138500000Y-118640491D01*
X138555751Y-118635000D01*
X138555752Y-118635000D01*
X138722499Y-118618577D01*
X138936447Y-118553676D01*
X139020000Y-118509016D01*
X139020000Y-118625084D01*
X139068805Y-118870445D01*
X139164541Y-119101571D01*
X139303527Y-119309578D01*
X139480422Y-119486473D01*
X139688429Y-119625459D01*
X139919555Y-119721195D01*
X140164916Y-119770000D01*
X140415084Y-119770000D01*
X140660445Y-119721195D01*
X140891571Y-119625459D01*
X141099578Y-119486473D01*
X141276473Y-119309578D01*
X141415459Y-119101571D01*
X141511195Y-118870445D01*
X141560000Y-118625084D01*
X141560000Y-118374916D01*
X141511195Y-118129555D01*
X141415459Y-117898429D01*
X141276473Y-117690422D01*
X141099578Y-117513527D01*
X140891571Y-117374541D01*
X140660445Y-117278805D01*
X140415084Y-117230000D01*
X140375132Y-117230000D01*
X140925274Y-116679858D01*
X140996614Y-116738405D01*
X141150150Y-116820472D01*
X141316746Y-116871008D01*
X141490000Y-116888072D01*
X143010000Y-116888072D01*
X143183254Y-116871008D01*
X143349850Y-116820472D01*
X143503386Y-116738405D01*
X143637962Y-116627962D01*
X143748405Y-116493386D01*
X143830472Y-116339850D01*
X143881008Y-116173254D01*
X143898072Y-116000000D01*
X143898072Y-115000000D01*
X143881008Y-114826746D01*
X143830472Y-114660150D01*
X143748405Y-114506614D01*
X143637962Y-114372038D01*
X143503386Y-114261595D01*
X143349850Y-114179528D01*
X143183254Y-114128992D01*
X143010000Y-114111928D01*
X141490000Y-114111928D01*
X141316746Y-114128992D01*
X141186688Y-114168444D01*
X141543313Y-113811820D01*
X141718493Y-113864960D01*
X141921963Y-113885000D01*
X142578037Y-113885000D01*
X142781507Y-113864960D01*
X143042581Y-113785764D01*
X143283188Y-113657157D01*
X143494081Y-113484081D01*
X143667157Y-113273188D01*
X143795764Y-113032581D01*
X143874960Y-112771507D01*
X143901701Y-112500000D01*
X143874960Y-112228493D01*
X143795764Y-111967419D01*
X143667157Y-111726812D01*
X143494081Y-111515919D01*
X143283188Y-111342843D01*
X143042581Y-111214236D01*
X142781507Y-111135040D01*
X142578037Y-111115000D01*
X141921963Y-111115000D01*
X141718493Y-111135040D01*
X141457419Y-111214236D01*
X141216812Y-111342843D01*
X141189209Y-111365496D01*
X141027501Y-111381423D01*
X140813553Y-111446324D01*
X140616377Y-111551716D01*
X140486856Y-111658011D01*
X140486855Y-111658012D01*
X140443551Y-111693551D01*
X140408013Y-111736854D01*
X139039995Y-113104873D01*
X139005824Y-113022376D01*
X138881612Y-112836480D01*
X138723520Y-112678388D01*
X138545616Y-112559516D01*
X139513146Y-111591987D01*
X139556449Y-111556449D01*
X139602777Y-111499999D01*
X139698284Y-111383623D01*
X139803676Y-111186447D01*
X139868577Y-110972499D01*
X139890491Y-110750000D01*
X139886297Y-110707419D01*
X139919555Y-110721195D01*
X140164916Y-110770000D01*
X140415084Y-110770000D01*
X140660445Y-110721195D01*
X140891571Y-110625459D01*
X141099578Y-110486473D01*
X141276473Y-110309578D01*
X141415459Y-110101571D01*
X141511195Y-109870445D01*
X141560000Y-109625084D01*
X141560000Y-109374916D01*
X141511195Y-109129555D01*
X141415459Y-108898429D01*
X141276473Y-108690422D01*
X141099578Y-108513527D01*
X140892258Y-108375000D01*
X141099578Y-108236473D01*
X141276473Y-108059578D01*
X141415459Y-107851571D01*
X141511195Y-107620445D01*
X141560000Y-107375084D01*
X141560000Y-107124916D01*
X141511195Y-106879555D01*
X141415459Y-106648429D01*
X141276473Y-106440422D01*
X141099578Y-106263527D01*
X140891571Y-106124541D01*
X140660445Y-106028805D01*
X140590283Y-106014849D01*
X141074888Y-105530244D01*
X141150150Y-105570472D01*
X141316746Y-105621008D01*
X141490000Y-105638072D01*
X143010000Y-105638072D01*
X143183254Y-105621008D01*
X143349850Y-105570472D01*
X143503386Y-105488405D01*
X143637962Y-105377962D01*
X143748405Y-105243386D01*
X143830472Y-105089850D01*
X143881008Y-104923254D01*
X143898072Y-104750000D01*
X143898072Y-103750000D01*
X143881008Y-103576746D01*
X143830472Y-103410150D01*
X143748405Y-103256614D01*
X143637962Y-103122038D01*
X143503386Y-103011595D01*
X143349850Y-102929528D01*
X143183254Y-102878992D01*
X143010000Y-102861928D01*
X141743204Y-102861928D01*
X141970132Y-102635000D01*
X142578037Y-102635000D01*
X142781507Y-102614960D01*
X143042581Y-102535764D01*
X143283188Y-102407157D01*
X143494081Y-102234081D01*
X143667157Y-102023188D01*
X143795764Y-101782581D01*
X143874960Y-101521507D01*
X143901701Y-101250000D01*
X143874960Y-100978493D01*
X143795764Y-100717419D01*
X143667157Y-100476812D01*
X143494081Y-100265919D01*
X143283188Y-100092843D01*
X143042581Y-99964236D01*
X142781507Y-99885040D01*
X142578037Y-99865000D01*
X141921963Y-99865000D01*
X141718493Y-99885040D01*
X141457419Y-99964236D01*
X141216812Y-100092843D01*
X141005919Y-100265919D01*
X140832843Y-100476812D01*
X140734995Y-100659873D01*
X137135000Y-104259869D01*
X137135000Y-103571554D01*
X137140491Y-103515802D01*
X137118577Y-103293303D01*
X137053676Y-103079355D01*
X136948284Y-102882179D01*
X136841989Y-102752658D01*
X136841987Y-102752656D01*
X136806449Y-102709353D01*
X136763145Y-102673814D01*
X136653419Y-102564088D01*
X136769578Y-102486473D01*
X136946473Y-102309578D01*
X137085459Y-102101571D01*
X137181195Y-101870445D01*
X137230000Y-101625084D01*
X137230000Y-101374916D01*
X137181195Y-101129555D01*
X137085459Y-100898429D01*
X136946473Y-100690422D01*
X136769578Y-100513527D01*
X136561571Y-100374541D01*
X136330445Y-100278805D01*
X136085084Y-100230000D01*
X135834916Y-100230000D01*
X135589555Y-100278805D01*
X135358429Y-100374541D01*
X135150422Y-100513527D01*
X134973527Y-100690422D01*
X134834541Y-100898429D01*
X134738805Y-101129555D01*
X134690000Y-101374916D01*
X134690000Y-101615000D01*
X132990132Y-101615000D01*
X135513141Y-99091991D01*
X135556449Y-99056449D01*
X135698284Y-98883623D01*
X135803676Y-98686447D01*
X135868577Y-98472499D01*
X135885000Y-98305752D01*
X135885000Y-98305751D01*
X135890491Y-98250000D01*
X135885000Y-98194249D01*
X135885000Y-98084916D01*
X136480000Y-98084916D01*
X136480000Y-98335084D01*
X136528805Y-98580445D01*
X136624541Y-98811571D01*
X136763527Y-99019578D01*
X136940422Y-99196473D01*
X137148429Y-99335459D01*
X137379555Y-99431195D01*
X137624916Y-99480000D01*
X137875084Y-99480000D01*
X138120445Y-99431195D01*
X138351571Y-99335459D01*
X138559578Y-99196473D01*
X138736473Y-99019578D01*
X138875459Y-98811571D01*
X138971195Y-98580445D01*
X139020000Y-98335084D01*
X139020000Y-98375084D01*
X139068805Y-98620445D01*
X139164541Y-98851571D01*
X139303527Y-99059578D01*
X139480422Y-99236473D01*
X139688429Y-99375459D01*
X139919555Y-99471195D01*
X140164916Y-99520000D01*
X140415084Y-99520000D01*
X140660445Y-99471195D01*
X140891571Y-99375459D01*
X141099578Y-99236473D01*
X141276473Y-99059578D01*
X141415459Y-98851571D01*
X141511195Y-98620445D01*
X141560000Y-98375084D01*
X141560000Y-98124916D01*
X141511195Y-97879555D01*
X141415459Y-97648429D01*
X141276473Y-97440422D01*
X141099578Y-97263527D01*
X140891571Y-97124541D01*
X140660445Y-97028805D01*
X140415084Y-96980000D01*
X140164916Y-96980000D01*
X139919555Y-97028805D01*
X139688429Y-97124541D01*
X139480422Y-97263527D01*
X139303527Y-97440422D01*
X139164541Y-97648429D01*
X139068805Y-97879555D01*
X139020000Y-98124916D01*
X139020000Y-98084916D01*
X138971195Y-97839555D01*
X138875459Y-97608429D01*
X138736473Y-97400422D01*
X138559578Y-97223527D01*
X138351571Y-97084541D01*
X138120445Y-96988805D01*
X137875084Y-96940000D01*
X137624916Y-96940000D01*
X137379555Y-96988805D01*
X137148429Y-97084541D01*
X136940422Y-97223527D01*
X136763527Y-97400422D01*
X136624541Y-97608429D01*
X136528805Y-97839555D01*
X136480000Y-98084916D01*
X135885000Y-98084916D01*
X135885000Y-97629386D01*
X135988405Y-97503386D01*
X136070472Y-97349850D01*
X136121008Y-97183254D01*
X136138072Y-97010000D01*
X136138072Y-95490000D01*
X136121008Y-95316746D01*
X136070472Y-95150150D01*
X135988405Y-94996614D01*
X135877962Y-94862038D01*
X135743386Y-94751595D01*
X135589850Y-94669528D01*
X135423254Y-94618992D01*
X135250000Y-94601928D01*
X134250000Y-94601928D01*
X134076746Y-94618992D01*
X133910150Y-94669528D01*
X133756614Y-94751595D01*
X133622038Y-94862038D01*
X133511595Y-94996614D01*
X133429528Y-95150150D01*
X133378992Y-95316746D01*
X133361928Y-95490000D01*
X133361928Y-97010000D01*
X133378992Y-97183254D01*
X133429528Y-97349850D01*
X133511595Y-97503386D01*
X133615000Y-97629387D01*
X133615000Y-97779868D01*
X132885000Y-98509868D01*
X132885000Y-97310186D01*
X132907157Y-97283188D01*
X133035764Y-97042581D01*
X133114960Y-96781507D01*
X133135000Y-96578037D01*
X133135000Y-95921964D01*
X133114960Y-95718494D01*
X133035764Y-95457419D01*
X132907157Y-95216812D01*
X132734081Y-95005919D01*
X132523188Y-94832843D01*
X132282581Y-94704236D01*
X132021507Y-94625040D01*
X131750000Y-94598299D01*
X131478494Y-94625040D01*
X131217420Y-94704236D01*
X130976813Y-94832843D01*
X130765920Y-95005919D01*
X130592843Y-95216812D01*
X130464236Y-95457419D01*
X130385040Y-95718493D01*
X130365000Y-95921963D01*
X130365000Y-96578036D01*
X130385040Y-96781506D01*
X130464236Y-97042580D01*
X130592843Y-97283187D01*
X130615001Y-97310186D01*
X130615000Y-98779867D01*
X126736860Y-102658009D01*
X126693552Y-102693551D01*
X126551717Y-102866377D01*
X126508985Y-102946324D01*
X126446324Y-103063554D01*
X126381423Y-103277502D01*
X126359509Y-103500000D01*
X126365001Y-103555761D01*
X126365000Y-108529868D01*
X125236860Y-109658009D01*
X125193552Y-109693551D01*
X125051717Y-109866377D01*
X125018541Y-109928446D01*
X124946324Y-110063554D01*
X124881423Y-110277502D01*
X124859509Y-110500000D01*
X124865001Y-110555761D01*
X124865000Y-113705714D01*
X124772629Y-113843957D01*
X124668225Y-114096011D01*
X124615000Y-114363589D01*
X124385000Y-114363589D01*
X124331775Y-114096011D01*
X124227371Y-113843957D01*
X124135000Y-113705714D01*
X124135000Y-110555741D01*
X124140490Y-110499999D01*
X124135000Y-110444257D01*
X124135000Y-110444248D01*
X124118577Y-110277501D01*
X124053676Y-110063553D01*
X123948284Y-109866377D01*
X123806449Y-109693551D01*
X123763140Y-109658008D01*
X122635000Y-108529869D01*
X122635000Y-98470131D01*
X123020215Y-98084916D01*
X124980000Y-98084916D01*
X124980000Y-98335084D01*
X125028805Y-98580445D01*
X125124541Y-98811571D01*
X125263527Y-99019578D01*
X125440422Y-99196473D01*
X125648429Y-99335459D01*
X125879555Y-99431195D01*
X126124916Y-99480000D01*
X126375084Y-99480000D01*
X126620445Y-99431195D01*
X126851571Y-99335459D01*
X127059578Y-99196473D01*
X127236473Y-99019578D01*
X127375459Y-98811571D01*
X127471195Y-98580445D01*
X127500000Y-98435631D01*
X127528805Y-98580445D01*
X127624541Y-98811571D01*
X127763527Y-99019578D01*
X127940422Y-99196473D01*
X128148429Y-99335459D01*
X128379555Y-99431195D01*
X128624916Y-99480000D01*
X128875084Y-99480000D01*
X129120445Y-99431195D01*
X129351571Y-99335459D01*
X129559578Y-99196473D01*
X129736473Y-99019578D01*
X129875459Y-98811571D01*
X129971195Y-98580445D01*
X130020000Y-98335084D01*
X130020000Y-98084916D01*
X129971195Y-97839555D01*
X129875459Y-97608429D01*
X129736473Y-97400422D01*
X129559578Y-97223527D01*
X129351571Y-97084541D01*
X129120445Y-96988805D01*
X128875084Y-96940000D01*
X128624916Y-96940000D01*
X128379555Y-96988805D01*
X128148429Y-97084541D01*
X127940422Y-97223527D01*
X127763527Y-97400422D01*
X127624541Y-97608429D01*
X127528805Y-97839555D01*
X127500000Y-97984369D01*
X127471195Y-97839555D01*
X127375459Y-97608429D01*
X127236473Y-97400422D01*
X127059578Y-97223527D01*
X126851571Y-97084541D01*
X126620445Y-96988805D01*
X126375084Y-96940000D01*
X126124916Y-96940000D01*
X125879555Y-96988805D01*
X125648429Y-97084541D01*
X125440422Y-97223527D01*
X125263527Y-97400422D01*
X125124541Y-97608429D01*
X125028805Y-97839555D01*
X124980000Y-98084916D01*
X123020215Y-98084916D01*
X123207060Y-97898072D01*
X123750000Y-97898072D01*
X123923254Y-97881008D01*
X124089850Y-97830472D01*
X124243386Y-97748405D01*
X124377962Y-97637962D01*
X124488405Y-97503386D01*
X124570472Y-97349850D01*
X124621008Y-97183254D01*
X124638072Y-97010000D01*
X124638072Y-95490000D01*
X124621008Y-95316746D01*
X124570472Y-95150150D01*
X124488405Y-94996614D01*
X124377962Y-94862038D01*
X124243386Y-94751595D01*
X124089850Y-94669528D01*
X123923254Y-94618992D01*
X123750000Y-94601928D01*
X122750000Y-94601928D01*
X122576746Y-94618992D01*
X122410150Y-94669528D01*
X122256614Y-94751595D01*
X122122038Y-94862038D01*
X122011595Y-94996614D01*
X121929528Y-95150150D01*
X121878992Y-95316746D01*
X121861928Y-95490000D01*
X121861928Y-96032940D01*
X121635000Y-96259868D01*
X121635000Y-95921964D01*
X121614960Y-95718494D01*
X121535764Y-95457419D01*
X121407157Y-95216812D01*
X121234081Y-95005919D01*
X121023188Y-94832843D01*
X120782581Y-94704236D01*
X120521507Y-94625040D01*
X120250000Y-94598299D01*
X119978494Y-94625040D01*
X119717420Y-94704236D01*
X119476813Y-94832843D01*
X119265920Y-95005919D01*
X119092843Y-95216812D01*
X118964236Y-95457419D01*
X118885040Y-95718493D01*
X118865000Y-95921963D01*
X118865000Y-96259868D01*
X118635000Y-96029869D01*
X118635000Y-95921964D01*
X118614960Y-95718494D01*
X118535764Y-95457419D01*
X118407157Y-95216812D01*
X118234081Y-95005919D01*
X118023188Y-94832843D01*
X117782581Y-94704236D01*
X117521507Y-94625040D01*
X117250000Y-94598299D01*
X116978494Y-94625040D01*
X116717420Y-94704236D01*
X116476813Y-94832843D01*
X116265920Y-95005919D01*
X116092843Y-95216812D01*
X115964236Y-95457419D01*
X115885040Y-95718493D01*
X115865000Y-95921963D01*
X115865000Y-96509869D01*
X115635000Y-96279869D01*
X115635000Y-95921964D01*
X115614960Y-95718494D01*
X115535764Y-95457419D01*
X115407157Y-95216812D01*
X115234081Y-95005919D01*
X115023188Y-94832843D01*
X114782581Y-94704236D01*
X114521507Y-94625040D01*
X114250000Y-94598299D01*
X113978494Y-94625040D01*
X113717420Y-94704236D01*
X113476813Y-94832843D01*
X113265920Y-95005919D01*
X113092843Y-95216812D01*
X112964236Y-95457419D01*
X112885040Y-95718493D01*
X112865000Y-95921963D01*
X112865000Y-96578036D01*
X112885040Y-96781506D01*
X112964236Y-97042580D01*
X113092843Y-97283187D01*
X113265919Y-97494080D01*
X113476812Y-97667157D01*
X113717419Y-97795764D01*
X113978493Y-97874960D01*
X114024345Y-97879476D01*
X115865000Y-99720132D01*
X115865000Y-103252945D01*
X115792581Y-103214236D01*
X115531507Y-103135040D01*
X115328037Y-103115000D01*
X114671963Y-103115000D01*
X114468493Y-103135040D01*
X114207419Y-103214236D01*
X113966812Y-103342843D01*
X113755919Y-103515919D01*
X113582843Y-103726812D01*
X113454236Y-103967419D01*
X113375040Y-104228493D01*
X113348299Y-104500000D01*
X113375040Y-104771507D01*
X113454236Y-105032581D01*
X113582843Y-105273188D01*
X113755919Y-105484081D01*
X113966812Y-105657157D01*
X114207419Y-105785764D01*
X114468493Y-105864960D01*
X114671963Y-105885000D01*
X115328037Y-105885000D01*
X115531507Y-105864960D01*
X115792581Y-105785764D01*
X115865001Y-105747055D01*
X115865001Y-106122270D01*
X115760000Y-106111928D01*
X114240000Y-106111928D01*
X114066746Y-106128992D01*
X113900150Y-106179528D01*
X113746614Y-106261595D01*
X113612038Y-106372038D01*
X113501595Y-106506614D01*
X113419528Y-106660150D01*
X113368992Y-106826746D01*
X113351928Y-107000000D01*
X113351928Y-107230995D01*
X112885000Y-106764067D01*
X112885000Y-105555752D01*
X112890491Y-105500000D01*
X112868577Y-105277501D01*
X112803676Y-105063553D01*
X112698284Y-104866377D01*
X112591989Y-104736856D01*
X112591987Y-104736854D01*
X112556449Y-104693551D01*
X112513145Y-104658012D01*
X109230048Y-101374916D01*
X111770000Y-101374916D01*
X111770000Y-101625084D01*
X111818805Y-101870445D01*
X111914541Y-102101571D01*
X112053527Y-102309578D01*
X112230422Y-102486473D01*
X112438429Y-102625459D01*
X112669555Y-102721195D01*
X112914916Y-102770000D01*
X113165084Y-102770000D01*
X113410445Y-102721195D01*
X113641571Y-102625459D01*
X113849578Y-102486473D01*
X114026473Y-102309578D01*
X114165459Y-102101571D01*
X114261195Y-101870445D01*
X114310000Y-101625084D01*
X114310000Y-101374916D01*
X114261195Y-101129555D01*
X114165459Y-100898429D01*
X114026473Y-100690422D01*
X113849578Y-100513527D01*
X113641571Y-100374541D01*
X113410445Y-100278805D01*
X113165084Y-100230000D01*
X112914916Y-100230000D01*
X112669555Y-100278805D01*
X112438429Y-100374541D01*
X112230422Y-100513527D01*
X112053527Y-100690422D01*
X111914541Y-100898429D01*
X111818805Y-101129555D01*
X111770000Y-101374916D01*
X109230048Y-101374916D01*
X108358858Y-100503727D01*
X108330472Y-100410150D01*
X108248405Y-100256614D01*
X108137962Y-100122038D01*
X108003386Y-100011595D01*
X107849850Y-99929528D01*
X107683254Y-99878992D01*
X107510000Y-99861928D01*
X105990000Y-99861928D01*
X105816746Y-99878992D01*
X105650150Y-99929528D01*
X105496614Y-100011595D01*
X105362038Y-100122038D01*
X105251595Y-100256614D01*
X105169528Y-100410150D01*
X105118992Y-100576746D01*
X105101928Y-100750000D01*
X105101928Y-101750000D01*
X105118992Y-101923254D01*
X105169528Y-102089850D01*
X105251595Y-102243386D01*
X105362038Y-102377962D01*
X105496614Y-102488405D01*
X105650150Y-102570472D01*
X105816746Y-102621008D01*
X105990000Y-102638072D01*
X107282941Y-102638072D01*
X107685492Y-103040623D01*
X107542581Y-102964236D01*
X107281507Y-102885040D01*
X107078037Y-102865000D01*
X106421963Y-102865000D01*
X106218493Y-102885040D01*
X105957419Y-102964236D01*
X105716812Y-103092843D01*
X105505919Y-103265919D01*
X105332843Y-103476812D01*
X105204236Y-103717419D01*
X105125040Y-103978493D01*
X105098299Y-104250000D01*
X103660000Y-104250000D01*
X103660000Y-98124916D01*
X107440000Y-98124916D01*
X107440000Y-98375084D01*
X107488805Y-98620445D01*
X107584541Y-98851571D01*
X107723527Y-99059578D01*
X107900422Y-99236473D01*
X108108429Y-99375459D01*
X108339555Y-99471195D01*
X108584916Y-99520000D01*
X108835084Y-99520000D01*
X109080445Y-99471195D01*
X109311571Y-99375459D01*
X109519578Y-99236473D01*
X109696473Y-99059578D01*
X109835459Y-98851571D01*
X109931195Y-98620445D01*
X109980000Y-98375084D01*
X109980000Y-98335084D01*
X110028805Y-98580445D01*
X110124541Y-98811571D01*
X110263527Y-99019578D01*
X110440422Y-99196473D01*
X110648429Y-99335459D01*
X110879555Y-99431195D01*
X111124916Y-99480000D01*
X111375084Y-99480000D01*
X111620445Y-99431195D01*
X111851571Y-99335459D01*
X112059578Y-99196473D01*
X112236473Y-99019578D01*
X112375459Y-98811571D01*
X112471195Y-98580445D01*
X112520000Y-98335084D01*
X112520000Y-98084916D01*
X112471195Y-97839555D01*
X112375459Y-97608429D01*
X112236473Y-97400422D01*
X112059578Y-97223527D01*
X111851571Y-97084541D01*
X111620445Y-96988805D01*
X111375084Y-96940000D01*
X111124916Y-96940000D01*
X110879555Y-96988805D01*
X110648429Y-97084541D01*
X110440422Y-97223527D01*
X110263527Y-97400422D01*
X110124541Y-97608429D01*
X110028805Y-97839555D01*
X109980000Y-98084916D01*
X109980000Y-98124916D01*
X109931195Y-97879555D01*
X109835459Y-97648429D01*
X109696473Y-97440422D01*
X109519578Y-97263527D01*
X109311571Y-97124541D01*
X109080445Y-97028805D01*
X108835084Y-96980000D01*
X108584916Y-96980000D01*
X108339555Y-97028805D01*
X108108429Y-97124541D01*
X107900422Y-97263527D01*
X107723527Y-97440422D01*
X107584541Y-97648429D01*
X107488805Y-97879555D01*
X107440000Y-98124916D01*
X103660000Y-98124916D01*
X103660000Y-96532278D01*
X103726714Y-95851874D01*
X103914943Y-95228428D01*
X104220681Y-94653421D01*
X104632279Y-94148753D01*
X105134067Y-93733638D01*
X105706924Y-93423895D01*
X106329039Y-93231318D01*
X107007584Y-93160000D01*
X141967722Y-93160000D01*
X142648126Y-93226714D01*
%TA.AperFunction,NonConductor*%
D16*
G36*
X142648126Y-93226714D02*
G01*
X143271572Y-93414943D01*
X143846579Y-93720681D01*
X144351247Y-94132279D01*
X144766362Y-94634067D01*
X145076105Y-95206924D01*
X145268682Y-95829039D01*
X145340001Y-96507594D01*
X145340000Y-120532418D01*
X145340001Y-120532428D01*
X145340000Y-122469743D01*
X145270453Y-123226610D01*
X145072390Y-123928892D01*
X144749664Y-124583316D01*
X144313082Y-125167969D01*
X143777265Y-125663275D01*
X143160158Y-126052639D01*
X142482431Y-126323025D01*
X141766776Y-126465378D01*
X141037169Y-126474929D01*
X140318029Y-126351358D01*
X139633460Y-126098807D01*
X139006373Y-125725729D01*
X138457771Y-125244619D01*
X138006036Y-124671596D01*
X137666288Y-124025840D01*
X137449911Y-123328990D01*
X137361083Y-122578495D01*
X137359985Y-122494581D01*
X137359947Y-122483721D01*
X137357034Y-122455046D01*
X137357235Y-122426219D01*
X137356335Y-122417047D01*
X137341918Y-122279872D01*
X139115000Y-122279872D01*
X139115000Y-122720128D01*
X139200890Y-123151925D01*
X139369369Y-123558669D01*
X139613962Y-123924729D01*
X139925271Y-124236038D01*
X140291331Y-124480631D01*
X140698075Y-124649110D01*
X141129872Y-124735000D01*
X141570128Y-124735000D01*
X142001925Y-124649110D01*
X142408669Y-124480631D01*
X142774729Y-124236038D01*
X143086038Y-123924729D01*
X143330631Y-123558669D01*
X143499110Y-123151925D01*
X143585000Y-122720128D01*
X143585000Y-122279872D01*
X143499110Y-121848075D01*
X143330631Y-121441331D01*
X143086038Y-121075271D01*
X142774729Y-120763962D01*
X142408669Y-120519369D01*
X142001925Y-120350890D01*
X141570128Y-120265000D01*
X141129872Y-120265000D01*
X140698075Y-120350890D01*
X140291331Y-120519369D01*
X139925271Y-120763962D01*
X139613962Y-121075271D01*
X139369369Y-121441331D01*
X139200890Y-121848075D01*
X139115000Y-122279872D01*
X137341918Y-122279872D01*
X137315534Y-122028855D01*
X137303514Y-121970299D01*
X137292298Y-121911498D01*
X137289634Y-121902677D01*
X137174210Y-121529802D01*
X137151025Y-121474647D01*
X137128621Y-121419194D01*
X137124294Y-121411058D01*
X137124294Y-121411057D01*
X137124291Y-121411053D01*
X136938643Y-121067702D01*
X136905187Y-121018101D01*
X136872437Y-120968054D01*
X136866613Y-120960913D01*
X136617806Y-120660158D01*
X136575371Y-120618019D01*
X136533508Y-120575269D01*
X136526407Y-120569396D01*
X136223923Y-120322695D01*
X136174107Y-120289598D01*
X136124741Y-120255795D01*
X136116635Y-120251413D01*
X135771993Y-120068163D01*
X135716687Y-120045368D01*
X135661704Y-120021802D01*
X135652901Y-120019077D01*
X135279230Y-119906259D01*
X135220542Y-119894639D01*
X135162039Y-119882203D01*
X135152874Y-119881240D01*
X134764405Y-119843150D01*
X134764402Y-119843150D01*
X134732419Y-119840000D01*
X114267581Y-119840000D01*
X114238627Y-119842852D01*
X114226219Y-119842765D01*
X114217047Y-119843665D01*
X113828855Y-119884466D01*
X113770299Y-119896486D01*
X113711498Y-119907702D01*
X113702677Y-119910366D01*
X113329802Y-120025790D01*
X113274647Y-120048975D01*
X113219194Y-120071379D01*
X113211062Y-120075704D01*
X113211057Y-120075706D01*
X113211053Y-120075709D01*
X112867702Y-120261357D01*
X112818101Y-120294813D01*
X112768054Y-120327563D01*
X112760913Y-120333387D01*
X112460158Y-120582194D01*
X112418019Y-120624629D01*
X112375269Y-120666492D01*
X112369396Y-120673593D01*
X112122695Y-120976077D01*
X112089598Y-121025893D01*
X112055795Y-121075259D01*
X112051413Y-121083365D01*
X111868163Y-121428007D01*
X111845368Y-121483313D01*
X111821802Y-121538296D01*
X111819077Y-121547099D01*
X111706259Y-121920770D01*
X111694639Y-121979458D01*
X111682203Y-122037961D01*
X111681240Y-122047126D01*
X111643150Y-122435595D01*
X111643150Y-122435984D01*
X111642769Y-122439609D01*
X111570453Y-123226610D01*
X111372390Y-123928892D01*
X111049664Y-124583316D01*
X110613082Y-125167969D01*
X110077265Y-125663275D01*
X109460158Y-126052639D01*
X108782431Y-126323025D01*
X108066776Y-126465378D01*
X107337169Y-126474929D01*
X106618029Y-126351358D01*
X105933460Y-126098807D01*
X105306373Y-125725729D01*
X104757771Y-125244619D01*
X104306036Y-124671596D01*
X103966288Y-124025840D01*
X103749911Y-123328990D01*
X103661083Y-122578495D01*
X103660000Y-122495718D01*
X103660000Y-122279872D01*
X105415000Y-122279872D01*
X105415000Y-122720128D01*
X105500890Y-123151925D01*
X105669369Y-123558669D01*
X105913962Y-123924729D01*
X106225271Y-124236038D01*
X106591331Y-124480631D01*
X106998075Y-124649110D01*
X107429872Y-124735000D01*
X107870128Y-124735000D01*
X108301925Y-124649110D01*
X108708669Y-124480631D01*
X109074729Y-124236038D01*
X109386038Y-123924729D01*
X109630631Y-123558669D01*
X109799110Y-123151925D01*
X109885000Y-122720128D01*
X109885000Y-122279872D01*
X109799110Y-121848075D01*
X109630631Y-121441331D01*
X109386038Y-121075271D01*
X109074729Y-120763962D01*
X108708669Y-120519369D01*
X108301925Y-120350890D01*
X107870128Y-120265000D01*
X107429872Y-120265000D01*
X106998075Y-120350890D01*
X106591331Y-120519369D01*
X106225271Y-120763962D01*
X105913962Y-121075271D01*
X105669369Y-121441331D01*
X105500890Y-121848075D01*
X105415000Y-122279872D01*
X103660000Y-122279872D01*
X103660000Y-104250000D01*
X105098299Y-104250000D01*
X105125040Y-104521507D01*
X105204236Y-104782581D01*
X105332843Y-105023188D01*
X105505919Y-105234081D01*
X105716812Y-105407157D01*
X105957419Y-105535764D01*
X106218493Y-105614960D01*
X106421963Y-105635000D01*
X107078037Y-105635000D01*
X107281507Y-105614960D01*
X107542581Y-105535764D01*
X107783188Y-105407157D01*
X107793535Y-105398666D01*
X108409717Y-106014849D01*
X108339555Y-106028805D01*
X108108429Y-106124541D01*
X107900422Y-106263527D01*
X107723527Y-106440422D01*
X107584541Y-106648429D01*
X107488805Y-106879555D01*
X107440000Y-107124916D01*
X107440000Y-107375084D01*
X107488805Y-107620445D01*
X107584541Y-107851571D01*
X107723527Y-108059578D01*
X107900422Y-108236473D01*
X108107742Y-108375000D01*
X107900422Y-108513527D01*
X107723527Y-108690422D01*
X107584541Y-108898429D01*
X107488805Y-109129555D01*
X107440000Y-109374916D01*
X107440000Y-109625084D01*
X107488805Y-109870445D01*
X107584541Y-110101571D01*
X107723527Y-110309578D01*
X107900422Y-110486473D01*
X108108429Y-110625459D01*
X108339555Y-110721195D01*
X108584916Y-110770000D01*
X108835084Y-110770000D01*
X109080445Y-110721195D01*
X109129302Y-110700958D01*
X109131423Y-110722498D01*
X109196324Y-110936446D01*
X109301716Y-111133623D01*
X109443551Y-111306449D01*
X109486865Y-111341996D01*
X110629726Y-112484857D01*
X110462376Y-112554176D01*
X110276480Y-112678388D01*
X110118388Y-112836480D01*
X109994176Y-113022376D01*
X109908617Y-113228933D01*
X109865000Y-113448212D01*
X109865000Y-113625001D01*
X109833686Y-113625001D01*
X108398072Y-112189387D01*
X108398072Y-112000000D01*
X108381008Y-111826746D01*
X108330472Y-111660150D01*
X108248405Y-111506614D01*
X108137962Y-111372038D01*
X108003386Y-111261595D01*
X107849850Y-111179528D01*
X107683254Y-111128992D01*
X107510000Y-111111928D01*
X106786837Y-111111928D01*
X106750000Y-111108300D01*
X106713163Y-111111928D01*
X105990000Y-111111928D01*
X105816746Y-111128992D01*
X105650150Y-111179528D01*
X105496614Y-111261595D01*
X105362038Y-111372038D01*
X105251595Y-111506614D01*
X105169528Y-111660150D01*
X105118992Y-111826746D01*
X105101928Y-112000000D01*
X105101928Y-113000000D01*
X105118992Y-113173254D01*
X105169528Y-113339850D01*
X105251595Y-113493386D01*
X105362038Y-113627962D01*
X105496614Y-113738405D01*
X105650150Y-113820472D01*
X105816746Y-113871008D01*
X105990000Y-113888072D01*
X106179387Y-113888072D01*
X106407718Y-114116403D01*
X106218493Y-114135040D01*
X105957419Y-114214236D01*
X105716812Y-114342843D01*
X105505919Y-114515919D01*
X105332843Y-114726812D01*
X105204236Y-114967419D01*
X105125040Y-115228493D01*
X105098299Y-115500000D01*
X105125040Y-115771507D01*
X105204236Y-116032581D01*
X105332843Y-116273188D01*
X105505919Y-116484081D01*
X105716812Y-116657157D01*
X105957419Y-116785764D01*
X106129183Y-116837868D01*
X107137549Y-117846235D01*
X107180918Y-117899080D01*
X107233763Y-117942449D01*
X107233765Y-117942451D01*
X107303889Y-118000000D01*
X107391811Y-118072156D01*
X107490689Y-118125007D01*
X107488805Y-118129555D01*
X107440000Y-118374916D01*
X107440000Y-118625084D01*
X107488805Y-118870445D01*
X107584541Y-119101571D01*
X107723527Y-119309578D01*
X107900422Y-119486473D01*
X108108429Y-119625459D01*
X108339555Y-119721195D01*
X108584916Y-119770000D01*
X108835084Y-119770000D01*
X109080445Y-119721195D01*
X109311571Y-119625459D01*
X109519578Y-119486473D01*
X109696473Y-119309578D01*
X109835459Y-119101571D01*
X109931195Y-118870445D01*
X109980000Y-118625084D01*
X109980000Y-118374916D01*
X109965098Y-118299999D01*
X112841314Y-118299999D01*
X113117114Y-118575799D01*
X113173965Y-118613786D01*
X113226812Y-118657156D01*
X113287103Y-118689382D01*
X113343957Y-118727371D01*
X113407128Y-118753537D01*
X113467418Y-118785763D01*
X113532838Y-118805608D01*
X113596011Y-118831775D01*
X113663075Y-118845115D01*
X113728492Y-118864959D01*
X113796521Y-118871659D01*
X113863589Y-118885000D01*
X113931972Y-118885000D01*
X113999999Y-118891700D01*
X114068026Y-118885000D01*
X114136411Y-118885000D01*
X114203481Y-118871659D01*
X114271506Y-118864959D01*
X114336919Y-118845116D01*
X114403989Y-118831775D01*
X114467167Y-118805606D01*
X114532580Y-118785763D01*
X114592864Y-118753541D01*
X114656043Y-118727371D01*
X114712902Y-118689379D01*
X114773187Y-118657156D01*
X114826028Y-118613790D01*
X114882886Y-118575799D01*
X114931241Y-118527444D01*
X114984080Y-118484080D01*
X115027444Y-118431241D01*
X115075799Y-118382886D01*
X115113790Y-118326028D01*
X115157156Y-118273187D01*
X115189379Y-118212902D01*
X115227371Y-118156043D01*
X115253541Y-118092864D01*
X115285763Y-118032580D01*
X115305606Y-117967167D01*
X115331775Y-117903989D01*
X115345116Y-117836919D01*
X115364959Y-117771506D01*
X115371659Y-117703481D01*
X115385000Y-117636411D01*
X115385000Y-117568026D01*
X115391700Y-117499999D01*
X115391354Y-117496485D01*
X115635788Y-117740920D01*
X115668225Y-117903989D01*
X115772629Y-118156043D01*
X115924201Y-118382886D01*
X116117114Y-118575799D01*
X116343957Y-118727371D01*
X116596011Y-118831775D01*
X116863589Y-118885000D01*
X117136411Y-118885000D01*
X117403989Y-118831775D01*
X117656043Y-118727371D01*
X117882886Y-118575799D01*
X118075799Y-118382886D01*
X118227371Y-118156043D01*
X118331775Y-117903989D01*
X118385000Y-117636411D01*
X118385000Y-117490131D01*
X118635788Y-117740920D01*
X118668225Y-117903989D01*
X118772629Y-118156043D01*
X118924201Y-118382886D01*
X119117114Y-118575799D01*
X119343957Y-118727371D01*
X119596011Y-118831775D01*
X119863589Y-118885000D01*
X120136411Y-118885000D01*
X120403989Y-118831775D01*
X120656043Y-118727371D01*
X120882886Y-118575799D01*
X121075799Y-118382886D01*
X121227371Y-118156043D01*
X121331775Y-117903989D01*
X121385000Y-117636411D01*
X121385000Y-117490131D01*
X121635788Y-117740920D01*
X121668225Y-117903989D01*
X121772629Y-118156043D01*
X121924201Y-118382886D01*
X122117114Y-118575799D01*
X122343957Y-118727371D01*
X122596011Y-118831775D01*
X122863589Y-118885000D01*
X123136411Y-118885000D01*
X123403989Y-118831775D01*
X123656043Y-118727371D01*
X123882886Y-118575799D01*
X124075799Y-118382886D01*
X124227371Y-118156043D01*
X124331775Y-117903989D01*
X124385000Y-117636411D01*
X124385000Y-117363589D01*
X124331775Y-117096011D01*
X124227371Y-116843957D01*
X124075799Y-116617114D01*
X123882886Y-116424201D01*
X123656043Y-116272629D01*
X123403989Y-116168225D01*
X123240920Y-116135788D01*
X122990131Y-115885000D01*
X123136411Y-115885000D01*
X123403989Y-115831775D01*
X123656043Y-115727371D01*
X123882886Y-115575799D01*
X124075799Y-115382886D01*
X124227371Y-115156043D01*
X124331775Y-114903989D01*
X124385000Y-114636411D01*
X124385000Y-114363589D01*
X124615000Y-114363589D01*
X124615000Y-114636411D01*
X124668225Y-114903989D01*
X124772629Y-115156043D01*
X124924201Y-115382886D01*
X125117114Y-115575799D01*
X125343957Y-115727371D01*
X125596011Y-115831775D01*
X125863589Y-115885000D01*
X126009868Y-115885000D01*
X125759080Y-116135788D01*
X125596011Y-116168225D01*
X125343957Y-116272629D01*
X125117114Y-116424201D01*
X124924201Y-116617114D01*
X124772629Y-116843957D01*
X124668225Y-117096011D01*
X124615000Y-117363589D01*
X124615000Y-117636411D01*
X124668225Y-117903989D01*
X124772629Y-118156043D01*
X124924201Y-118382886D01*
X125117114Y-118575799D01*
X125343957Y-118727371D01*
X125596011Y-118831775D01*
X125863589Y-118885000D01*
X126136411Y-118885000D01*
X126403989Y-118831775D01*
X126656043Y-118727371D01*
X126882886Y-118575799D01*
X127075799Y-118382886D01*
X127227371Y-118156043D01*
X127331775Y-117903989D01*
X127364212Y-117740920D01*
X127615000Y-117490132D01*
X127615000Y-117636411D01*
X127668225Y-117903989D01*
X127772629Y-118156043D01*
X127924201Y-118382886D01*
X128117114Y-118575799D01*
X128343957Y-118727371D01*
X128596011Y-118831775D01*
X128863589Y-118885000D01*
X129136411Y-118885000D01*
X129403989Y-118831775D01*
X129656043Y-118727371D01*
X129882886Y-118575799D01*
X130075799Y-118382886D01*
X130227371Y-118156043D01*
X130331775Y-117903989D01*
X130364212Y-117740920D01*
X130615000Y-117490132D01*
X130615000Y-117636411D01*
X130668225Y-117903989D01*
X130772629Y-118156043D01*
X130924201Y-118382886D01*
X131117114Y-118575799D01*
X131343957Y-118727371D01*
X131596011Y-118831775D01*
X131863589Y-118885000D01*
X132136411Y-118885000D01*
X132403989Y-118831775D01*
X132656043Y-118727371D01*
X132882886Y-118575799D01*
X133075799Y-118382886D01*
X133227371Y-118156043D01*
X133331775Y-117903989D01*
X133364212Y-117740920D01*
X133611928Y-117493204D01*
X133611928Y-118000000D01*
X133628992Y-118173254D01*
X133679528Y-118339850D01*
X133761595Y-118493386D01*
X133872038Y-118627962D01*
X134006614Y-118738405D01*
X134160150Y-118820472D01*
X134326746Y-118871008D01*
X134500000Y-118888072D01*
X135500000Y-118888072D01*
X135673254Y-118871008D01*
X135839850Y-118820472D01*
X135993386Y-118738405D01*
X136119386Y-118635000D01*
X138444249Y-118635000D01*
X138500000Y-118640491D01*
X138555751Y-118635000D01*
X138555752Y-118635000D01*
X138722499Y-118618577D01*
X138936447Y-118553676D01*
X139020000Y-118509016D01*
X139020000Y-118625084D01*
X139068805Y-118870445D01*
X139164541Y-119101571D01*
X139303527Y-119309578D01*
X139480422Y-119486473D01*
X139688429Y-119625459D01*
X139919555Y-119721195D01*
X140164916Y-119770000D01*
X140415084Y-119770000D01*
X140660445Y-119721195D01*
X140891571Y-119625459D01*
X141099578Y-119486473D01*
X141276473Y-119309578D01*
X141415459Y-119101571D01*
X141511195Y-118870445D01*
X141560000Y-118625084D01*
X141560000Y-118374916D01*
X141511195Y-118129555D01*
X141415459Y-117898429D01*
X141276473Y-117690422D01*
X141099578Y-117513527D01*
X140891571Y-117374541D01*
X140660445Y-117278805D01*
X140415084Y-117230000D01*
X140375132Y-117230000D01*
X140925274Y-116679858D01*
X140996614Y-116738405D01*
X141150150Y-116820472D01*
X141316746Y-116871008D01*
X141490000Y-116888072D01*
X143010000Y-116888072D01*
X143183254Y-116871008D01*
X143349850Y-116820472D01*
X143503386Y-116738405D01*
X143637962Y-116627962D01*
X143748405Y-116493386D01*
X143830472Y-116339850D01*
X143881008Y-116173254D01*
X143898072Y-116000000D01*
X143898072Y-115000000D01*
X143881008Y-114826746D01*
X143830472Y-114660150D01*
X143748405Y-114506614D01*
X143637962Y-114372038D01*
X143503386Y-114261595D01*
X143349850Y-114179528D01*
X143183254Y-114128992D01*
X143010000Y-114111928D01*
X141490000Y-114111928D01*
X141316746Y-114128992D01*
X141186688Y-114168444D01*
X141543313Y-113811820D01*
X141718493Y-113864960D01*
X141921963Y-113885000D01*
X142578037Y-113885000D01*
X142781507Y-113864960D01*
X143042581Y-113785764D01*
X143283188Y-113657157D01*
X143494081Y-113484081D01*
X143667157Y-113273188D01*
X143795764Y-113032581D01*
X143874960Y-112771507D01*
X143901701Y-112500000D01*
X143874960Y-112228493D01*
X143795764Y-111967419D01*
X143667157Y-111726812D01*
X143494081Y-111515919D01*
X143283188Y-111342843D01*
X143042581Y-111214236D01*
X142781507Y-111135040D01*
X142578037Y-111115000D01*
X141921963Y-111115000D01*
X141718493Y-111135040D01*
X141457419Y-111214236D01*
X141216812Y-111342843D01*
X141189209Y-111365496D01*
X141027501Y-111381423D01*
X140813553Y-111446324D01*
X140616377Y-111551716D01*
X140486856Y-111658011D01*
X140486855Y-111658012D01*
X140443551Y-111693551D01*
X140408013Y-111736854D01*
X139039995Y-113104873D01*
X139005824Y-113022376D01*
X138881612Y-112836480D01*
X138723520Y-112678388D01*
X138545616Y-112559516D01*
X139513146Y-111591987D01*
X139556449Y-111556449D01*
X139602777Y-111499999D01*
X139698284Y-111383623D01*
X139803676Y-111186447D01*
X139868577Y-110972499D01*
X139890491Y-110750000D01*
X139886297Y-110707419D01*
X139919555Y-110721195D01*
X140164916Y-110770000D01*
X140415084Y-110770000D01*
X140660445Y-110721195D01*
X140891571Y-110625459D01*
X141099578Y-110486473D01*
X141276473Y-110309578D01*
X141415459Y-110101571D01*
X141511195Y-109870445D01*
X141560000Y-109625084D01*
X141560000Y-109374916D01*
X141511195Y-109129555D01*
X141415459Y-108898429D01*
X141276473Y-108690422D01*
X141099578Y-108513527D01*
X140892258Y-108375000D01*
X141099578Y-108236473D01*
X141276473Y-108059578D01*
X141415459Y-107851571D01*
X141511195Y-107620445D01*
X141560000Y-107375084D01*
X141560000Y-107124916D01*
X141511195Y-106879555D01*
X141415459Y-106648429D01*
X141276473Y-106440422D01*
X141099578Y-106263527D01*
X140891571Y-106124541D01*
X140660445Y-106028805D01*
X140590283Y-106014849D01*
X141074888Y-105530244D01*
X141150150Y-105570472D01*
X141316746Y-105621008D01*
X141490000Y-105638072D01*
X143010000Y-105638072D01*
X143183254Y-105621008D01*
X143349850Y-105570472D01*
X143503386Y-105488405D01*
X143637962Y-105377962D01*
X143748405Y-105243386D01*
X143830472Y-105089850D01*
X143881008Y-104923254D01*
X143898072Y-104750000D01*
X143898072Y-103750000D01*
X143881008Y-103576746D01*
X143830472Y-103410150D01*
X143748405Y-103256614D01*
X143637962Y-103122038D01*
X143503386Y-103011595D01*
X143349850Y-102929528D01*
X143183254Y-102878992D01*
X143010000Y-102861928D01*
X141743204Y-102861928D01*
X141970132Y-102635000D01*
X142578037Y-102635000D01*
X142781507Y-102614960D01*
X143042581Y-102535764D01*
X143283188Y-102407157D01*
X143494081Y-102234081D01*
X143667157Y-102023188D01*
X143795764Y-101782581D01*
X143874960Y-101521507D01*
X143901701Y-101250000D01*
X143874960Y-100978493D01*
X143795764Y-100717419D01*
X143667157Y-100476812D01*
X143494081Y-100265919D01*
X143283188Y-100092843D01*
X143042581Y-99964236D01*
X142781507Y-99885040D01*
X142578037Y-99865000D01*
X141921963Y-99865000D01*
X141718493Y-99885040D01*
X141457419Y-99964236D01*
X141216812Y-100092843D01*
X141005919Y-100265919D01*
X140832843Y-100476812D01*
X140734995Y-100659873D01*
X137135000Y-104259869D01*
X137135000Y-103571554D01*
X137140491Y-103515802D01*
X137118577Y-103293303D01*
X137053676Y-103079355D01*
X136948284Y-102882179D01*
X136841989Y-102752658D01*
X136841987Y-102752656D01*
X136806449Y-102709353D01*
X136763145Y-102673814D01*
X136653419Y-102564088D01*
X136769578Y-102486473D01*
X136946473Y-102309578D01*
X137085459Y-102101571D01*
X137181195Y-101870445D01*
X137230000Y-101625084D01*
X137230000Y-101374916D01*
X137181195Y-101129555D01*
X137085459Y-100898429D01*
X136946473Y-100690422D01*
X136769578Y-100513527D01*
X136561571Y-100374541D01*
X136330445Y-100278805D01*
X136085084Y-100230000D01*
X135834916Y-100230000D01*
X135589555Y-100278805D01*
X135358429Y-100374541D01*
X135150422Y-100513527D01*
X134973527Y-100690422D01*
X134834541Y-100898429D01*
X134738805Y-101129555D01*
X134690000Y-101374916D01*
X134690000Y-101615000D01*
X132990132Y-101615000D01*
X135513141Y-99091991D01*
X135556449Y-99056449D01*
X135698284Y-98883623D01*
X135803676Y-98686447D01*
X135868577Y-98472499D01*
X135885000Y-98305752D01*
X135885000Y-98305751D01*
X135890491Y-98250000D01*
X135885000Y-98194249D01*
X135885000Y-98084916D01*
X136480000Y-98084916D01*
X136480000Y-98335084D01*
X136528805Y-98580445D01*
X136624541Y-98811571D01*
X136763527Y-99019578D01*
X136940422Y-99196473D01*
X137148429Y-99335459D01*
X137379555Y-99431195D01*
X137624916Y-99480000D01*
X137875084Y-99480000D01*
X138120445Y-99431195D01*
X138351571Y-99335459D01*
X138559578Y-99196473D01*
X138736473Y-99019578D01*
X138875459Y-98811571D01*
X138971195Y-98580445D01*
X139020000Y-98335084D01*
X139020000Y-98375084D01*
X139068805Y-98620445D01*
X139164541Y-98851571D01*
X139303527Y-99059578D01*
X139480422Y-99236473D01*
X139688429Y-99375459D01*
X139919555Y-99471195D01*
X140164916Y-99520000D01*
X140415084Y-99520000D01*
X140660445Y-99471195D01*
X140891571Y-99375459D01*
X141099578Y-99236473D01*
X141276473Y-99059578D01*
X141415459Y-98851571D01*
X141511195Y-98620445D01*
X141560000Y-98375084D01*
X141560000Y-98124916D01*
X141511195Y-97879555D01*
X141415459Y-97648429D01*
X141276473Y-97440422D01*
X141099578Y-97263527D01*
X140891571Y-97124541D01*
X140660445Y-97028805D01*
X140415084Y-96980000D01*
X140164916Y-96980000D01*
X139919555Y-97028805D01*
X139688429Y-97124541D01*
X139480422Y-97263527D01*
X139303527Y-97440422D01*
X139164541Y-97648429D01*
X139068805Y-97879555D01*
X139020000Y-98124916D01*
X139020000Y-98084916D01*
X138971195Y-97839555D01*
X138875459Y-97608429D01*
X138736473Y-97400422D01*
X138559578Y-97223527D01*
X138351571Y-97084541D01*
X138120445Y-96988805D01*
X137875084Y-96940000D01*
X137624916Y-96940000D01*
X137379555Y-96988805D01*
X137148429Y-97084541D01*
X136940422Y-97223527D01*
X136763527Y-97400422D01*
X136624541Y-97608429D01*
X136528805Y-97839555D01*
X136480000Y-98084916D01*
X135885000Y-98084916D01*
X135885000Y-97629386D01*
X135988405Y-97503386D01*
X136070472Y-97349850D01*
X136121008Y-97183254D01*
X136138072Y-97010000D01*
X136138072Y-95490000D01*
X136121008Y-95316746D01*
X136070472Y-95150150D01*
X135988405Y-94996614D01*
X135877962Y-94862038D01*
X135743386Y-94751595D01*
X135589850Y-94669528D01*
X135423254Y-94618992D01*
X135250000Y-94601928D01*
X134250000Y-94601928D01*
X134076746Y-94618992D01*
X133910150Y-94669528D01*
X133756614Y-94751595D01*
X133622038Y-94862038D01*
X133511595Y-94996614D01*
X133429528Y-95150150D01*
X133378992Y-95316746D01*
X133361928Y-95490000D01*
X133361928Y-97010000D01*
X133378992Y-97183254D01*
X133429528Y-97349850D01*
X133511595Y-97503386D01*
X133615000Y-97629387D01*
X133615000Y-97779868D01*
X132885000Y-98509868D01*
X132885000Y-97310186D01*
X132907157Y-97283188D01*
X133035764Y-97042581D01*
X133114960Y-96781507D01*
X133135000Y-96578037D01*
X133135000Y-95921964D01*
X133114960Y-95718494D01*
X133035764Y-95457419D01*
X132907157Y-95216812D01*
X132734081Y-95005919D01*
X132523188Y-94832843D01*
X132282581Y-94704236D01*
X132021507Y-94625040D01*
X131750000Y-94598299D01*
X131478494Y-94625040D01*
X131217420Y-94704236D01*
X130976813Y-94832843D01*
X130765920Y-95005919D01*
X130592843Y-95216812D01*
X130464236Y-95457419D01*
X130385040Y-95718493D01*
X130365000Y-95921963D01*
X130365000Y-96578036D01*
X130385040Y-96781506D01*
X130464236Y-97042580D01*
X130592843Y-97283187D01*
X130615001Y-97310186D01*
X130615000Y-98779867D01*
X126736860Y-102658009D01*
X126693552Y-102693551D01*
X126551717Y-102866377D01*
X126508985Y-102946324D01*
X126446324Y-103063554D01*
X126381423Y-103277502D01*
X126359509Y-103500000D01*
X126365001Y-103555761D01*
X126365000Y-108529868D01*
X125236860Y-109658009D01*
X125193552Y-109693551D01*
X125051717Y-109866377D01*
X125018541Y-109928446D01*
X124946324Y-110063554D01*
X124881423Y-110277502D01*
X124859509Y-110500000D01*
X124865001Y-110555761D01*
X124865000Y-113705714D01*
X124772629Y-113843957D01*
X124668225Y-114096011D01*
X124615000Y-114363589D01*
X124385000Y-114363589D01*
X124331775Y-114096011D01*
X124227371Y-113843957D01*
X124135000Y-113705714D01*
X124135000Y-110555741D01*
X124140490Y-110499999D01*
X124135000Y-110444257D01*
X124135000Y-110444248D01*
X124118577Y-110277501D01*
X124053676Y-110063553D01*
X123948284Y-109866377D01*
X123806449Y-109693551D01*
X123763140Y-109658008D01*
X122635000Y-108529869D01*
X122635000Y-98470131D01*
X123020215Y-98084916D01*
X124980000Y-98084916D01*
X124980000Y-98335084D01*
X125028805Y-98580445D01*
X125124541Y-98811571D01*
X125263527Y-99019578D01*
X125440422Y-99196473D01*
X125648429Y-99335459D01*
X125879555Y-99431195D01*
X126124916Y-99480000D01*
X126375084Y-99480000D01*
X126620445Y-99431195D01*
X126851571Y-99335459D01*
X127059578Y-99196473D01*
X127236473Y-99019578D01*
X127375459Y-98811571D01*
X127471195Y-98580445D01*
X127500000Y-98435631D01*
X127528805Y-98580445D01*
X127624541Y-98811571D01*
X127763527Y-99019578D01*
X127940422Y-99196473D01*
X128148429Y-99335459D01*
X128379555Y-99431195D01*
X128624916Y-99480000D01*
X128875084Y-99480000D01*
X129120445Y-99431195D01*
X129351571Y-99335459D01*
X129559578Y-99196473D01*
X129736473Y-99019578D01*
X129875459Y-98811571D01*
X129971195Y-98580445D01*
X130020000Y-98335084D01*
X130020000Y-98084916D01*
X129971195Y-97839555D01*
X129875459Y-97608429D01*
X129736473Y-97400422D01*
X129559578Y-97223527D01*
X129351571Y-97084541D01*
X129120445Y-96988805D01*
X128875084Y-96940000D01*
X128624916Y-96940000D01*
X128379555Y-96988805D01*
X128148429Y-97084541D01*
X127940422Y-97223527D01*
X127763527Y-97400422D01*
X127624541Y-97608429D01*
X127528805Y-97839555D01*
X127500000Y-97984369D01*
X127471195Y-97839555D01*
X127375459Y-97608429D01*
X127236473Y-97400422D01*
X127059578Y-97223527D01*
X126851571Y-97084541D01*
X126620445Y-96988805D01*
X126375084Y-96940000D01*
X126124916Y-96940000D01*
X125879555Y-96988805D01*
X125648429Y-97084541D01*
X125440422Y-97223527D01*
X125263527Y-97400422D01*
X125124541Y-97608429D01*
X125028805Y-97839555D01*
X124980000Y-98084916D01*
X123020215Y-98084916D01*
X123207060Y-97898072D01*
X123750000Y-97898072D01*
X123923254Y-97881008D01*
X124089850Y-97830472D01*
X124243386Y-97748405D01*
X124377962Y-97637962D01*
X124488405Y-97503386D01*
X124570472Y-97349850D01*
X124621008Y-97183254D01*
X124638072Y-97010000D01*
X124638072Y-95490000D01*
X124621008Y-95316746D01*
X124570472Y-95150150D01*
X124488405Y-94996614D01*
X124377962Y-94862038D01*
X124243386Y-94751595D01*
X124089850Y-94669528D01*
X123923254Y-94618992D01*
X123750000Y-94601928D01*
X122750000Y-94601928D01*
X122576746Y-94618992D01*
X122410150Y-94669528D01*
X122256614Y-94751595D01*
X122122038Y-94862038D01*
X122011595Y-94996614D01*
X121929528Y-95150150D01*
X121878992Y-95316746D01*
X121861928Y-95490000D01*
X121861928Y-96032940D01*
X121635000Y-96259868D01*
X121635000Y-95921964D01*
X121614960Y-95718494D01*
X121535764Y-95457419D01*
X121407157Y-95216812D01*
X121234081Y-95005919D01*
X121023188Y-94832843D01*
X120782581Y-94704236D01*
X120521507Y-94625040D01*
X120250000Y-94598299D01*
X119978494Y-94625040D01*
X119717420Y-94704236D01*
X119476813Y-94832843D01*
X119265920Y-95005919D01*
X119092843Y-95216812D01*
X118964236Y-95457419D01*
X118885040Y-95718493D01*
X118865000Y-95921963D01*
X118865000Y-96259868D01*
X118635000Y-96029869D01*
X118635000Y-95921964D01*
X118614960Y-95718494D01*
X118535764Y-95457419D01*
X118407157Y-95216812D01*
X118234081Y-95005919D01*
X118023188Y-94832843D01*
X117782581Y-94704236D01*
X117521507Y-94625040D01*
X117250000Y-94598299D01*
X116978494Y-94625040D01*
X116717420Y-94704236D01*
X116476813Y-94832843D01*
X116265920Y-95005919D01*
X116092843Y-95216812D01*
X115964236Y-95457419D01*
X115885040Y-95718493D01*
X115865000Y-95921963D01*
X115865000Y-96509869D01*
X115635000Y-96279869D01*
X115635000Y-95921964D01*
X115614960Y-95718494D01*
X115535764Y-95457419D01*
X115407157Y-95216812D01*
X115234081Y-95005919D01*
X115023188Y-94832843D01*
X114782581Y-94704236D01*
X114521507Y-94625040D01*
X114250000Y-94598299D01*
X113978494Y-94625040D01*
X113717420Y-94704236D01*
X113476813Y-94832843D01*
X113265920Y-95005919D01*
X113092843Y-95216812D01*
X112964236Y-95457419D01*
X112885040Y-95718493D01*
X112865000Y-95921963D01*
X112865000Y-96578036D01*
X112885040Y-96781506D01*
X112964236Y-97042580D01*
X113092843Y-97283187D01*
X113265919Y-97494080D01*
X113476812Y-97667157D01*
X113717419Y-97795764D01*
X113978493Y-97874960D01*
X114024345Y-97879476D01*
X115865000Y-99720132D01*
X115865000Y-103252945D01*
X115792581Y-103214236D01*
X115531507Y-103135040D01*
X115328037Y-103115000D01*
X114671963Y-103115000D01*
X114468493Y-103135040D01*
X114207419Y-103214236D01*
X113966812Y-103342843D01*
X113755919Y-103515919D01*
X113582843Y-103726812D01*
X113454236Y-103967419D01*
X113375040Y-104228493D01*
X113348299Y-104500000D01*
X113375040Y-104771507D01*
X113454236Y-105032581D01*
X113582843Y-105273188D01*
X113755919Y-105484081D01*
X113966812Y-105657157D01*
X114207419Y-105785764D01*
X114468493Y-105864960D01*
X114671963Y-105885000D01*
X115328037Y-105885000D01*
X115531507Y-105864960D01*
X115792581Y-105785764D01*
X115865001Y-105747055D01*
X115865001Y-106122270D01*
X115760000Y-106111928D01*
X114240000Y-106111928D01*
X114066746Y-106128992D01*
X113900150Y-106179528D01*
X113746614Y-106261595D01*
X113612038Y-106372038D01*
X113501595Y-106506614D01*
X113419528Y-106660150D01*
X113368992Y-106826746D01*
X113351928Y-107000000D01*
X113351928Y-107230995D01*
X112885000Y-106764067D01*
X112885000Y-105555752D01*
X112890491Y-105500000D01*
X112868577Y-105277501D01*
X112803676Y-105063553D01*
X112698284Y-104866377D01*
X112591989Y-104736856D01*
X112591987Y-104736854D01*
X112556449Y-104693551D01*
X112513145Y-104658012D01*
X109230048Y-101374916D01*
X111770000Y-101374916D01*
X111770000Y-101625084D01*
X111818805Y-101870445D01*
X111914541Y-102101571D01*
X112053527Y-102309578D01*
X112230422Y-102486473D01*
X112438429Y-102625459D01*
X112669555Y-102721195D01*
X112914916Y-102770000D01*
X113165084Y-102770000D01*
X113410445Y-102721195D01*
X113641571Y-102625459D01*
X113849578Y-102486473D01*
X114026473Y-102309578D01*
X114165459Y-102101571D01*
X114261195Y-101870445D01*
X114310000Y-101625084D01*
X114310000Y-101374916D01*
X114261195Y-101129555D01*
X114165459Y-100898429D01*
X114026473Y-100690422D01*
X113849578Y-100513527D01*
X113641571Y-100374541D01*
X113410445Y-100278805D01*
X113165084Y-100230000D01*
X112914916Y-100230000D01*
X112669555Y-100278805D01*
X112438429Y-100374541D01*
X112230422Y-100513527D01*
X112053527Y-100690422D01*
X111914541Y-100898429D01*
X111818805Y-101129555D01*
X111770000Y-101374916D01*
X109230048Y-101374916D01*
X108358858Y-100503727D01*
X108330472Y-100410150D01*
X108248405Y-100256614D01*
X108137962Y-100122038D01*
X108003386Y-100011595D01*
X107849850Y-99929528D01*
X107683254Y-99878992D01*
X107510000Y-99861928D01*
X105990000Y-99861928D01*
X105816746Y-99878992D01*
X105650150Y-99929528D01*
X105496614Y-100011595D01*
X105362038Y-100122038D01*
X105251595Y-100256614D01*
X105169528Y-100410150D01*
X105118992Y-100576746D01*
X105101928Y-100750000D01*
X105101928Y-101750000D01*
X105118992Y-101923254D01*
X105169528Y-102089850D01*
X105251595Y-102243386D01*
X105362038Y-102377962D01*
X105496614Y-102488405D01*
X105650150Y-102570472D01*
X105816746Y-102621008D01*
X105990000Y-102638072D01*
X107282941Y-102638072D01*
X107685492Y-103040623D01*
X107542581Y-102964236D01*
X107281507Y-102885040D01*
X107078037Y-102865000D01*
X106421963Y-102865000D01*
X106218493Y-102885040D01*
X105957419Y-102964236D01*
X105716812Y-103092843D01*
X105505919Y-103265919D01*
X105332843Y-103476812D01*
X105204236Y-103717419D01*
X105125040Y-103978493D01*
X105098299Y-104250000D01*
X103660000Y-104250000D01*
X103660000Y-98124916D01*
X107440000Y-98124916D01*
X107440000Y-98375084D01*
X107488805Y-98620445D01*
X107584541Y-98851571D01*
X107723527Y-99059578D01*
X107900422Y-99236473D01*
X108108429Y-99375459D01*
X108339555Y-99471195D01*
X108584916Y-99520000D01*
X108835084Y-99520000D01*
X109080445Y-99471195D01*
X109311571Y-99375459D01*
X109519578Y-99236473D01*
X109696473Y-99059578D01*
X109835459Y-98851571D01*
X109931195Y-98620445D01*
X109980000Y-98375084D01*
X109980000Y-98335084D01*
X110028805Y-98580445D01*
X110124541Y-98811571D01*
X110263527Y-99019578D01*
X110440422Y-99196473D01*
X110648429Y-99335459D01*
X110879555Y-99431195D01*
X111124916Y-99480000D01*
X111375084Y-99480000D01*
X111620445Y-99431195D01*
X111851571Y-99335459D01*
X112059578Y-99196473D01*
X112236473Y-99019578D01*
X112375459Y-98811571D01*
X112471195Y-98580445D01*
X112520000Y-98335084D01*
X112520000Y-98084916D01*
X112471195Y-97839555D01*
X112375459Y-97608429D01*
X112236473Y-97400422D01*
X112059578Y-97223527D01*
X111851571Y-97084541D01*
X111620445Y-96988805D01*
X111375084Y-96940000D01*
X111124916Y-96940000D01*
X110879555Y-96988805D01*
X110648429Y-97084541D01*
X110440422Y-97223527D01*
X110263527Y-97400422D01*
X110124541Y-97608429D01*
X110028805Y-97839555D01*
X109980000Y-98084916D01*
X109980000Y-98124916D01*
X109931195Y-97879555D01*
X109835459Y-97648429D01*
X109696473Y-97440422D01*
X109519578Y-97263527D01*
X109311571Y-97124541D01*
X109080445Y-97028805D01*
X108835084Y-96980000D01*
X108584916Y-96980000D01*
X108339555Y-97028805D01*
X108108429Y-97124541D01*
X107900422Y-97263527D01*
X107723527Y-97440422D01*
X107584541Y-97648429D01*
X107488805Y-97879555D01*
X107440000Y-98124916D01*
X103660000Y-98124916D01*
X103660000Y-96532278D01*
X103726714Y-95851874D01*
X103914943Y-95228428D01*
X104220681Y-94653421D01*
X104632279Y-94148753D01*
X105134067Y-93733638D01*
X105706924Y-93423895D01*
X106329039Y-93231318D01*
X107007584Y-93160000D01*
X141967722Y-93160000D01*
X142648126Y-93226714D01*
G37*
%TD.AperFunction*%
D15*
X117365001Y-115944239D02*
X117359509Y-116000000D01*
X117375520Y-116162562D01*
X117240920Y-116135788D01*
X116990131Y-115885000D01*
X117136411Y-115885000D01*
X117365001Y-115839530D01*
X117365001Y-115944239D01*
%TA.AperFunction,NonConductor*%
D16*
G36*
X117365001Y-115944239D02*
G01*
X117359509Y-116000000D01*
X117375520Y-116162562D01*
X117240920Y-116135788D01*
X116990131Y-115885000D01*
X117136411Y-115885000D01*
X117365001Y-115839530D01*
X117365001Y-115944239D01*
G37*
%TD.AperFunction*%
D15*
X120365000Y-115944248D02*
X120359509Y-116000000D01*
X120365000Y-116055751D01*
X120375520Y-116162562D01*
X120240920Y-116135788D01*
X119990131Y-115885000D01*
X120136411Y-115885000D01*
X120365000Y-115839530D01*
X120365000Y-115944248D01*
%TA.AperFunction,NonConductor*%
D16*
G36*
X120365000Y-115944248D02*
G01*
X120359509Y-116000000D01*
X120365000Y-116055751D01*
X120375520Y-116162562D01*
X120240920Y-116135788D01*
X119990131Y-115885000D01*
X120136411Y-115885000D01*
X120365000Y-115839530D01*
X120365000Y-115944248D01*
G37*
%TD.AperFunction*%
D15*
X114272384Y-111361714D02*
X114250000Y-111359509D01*
X114194249Y-111365000D01*
X113971051Y-111365000D01*
X114026473Y-111309578D01*
X114104089Y-111193418D01*
X114272384Y-111361714D01*
%TA.AperFunction,NonConductor*%
D16*
G36*
X114272384Y-111361714D02*
G01*
X114250000Y-111359509D01*
X114194249Y-111365000D01*
X113971051Y-111365000D01*
X114026473Y-111309578D01*
X114104089Y-111193418D01*
X114272384Y-111361714D01*
G37*
%TD.AperFunction*%
D15*
X112346582Y-109435911D02*
X112230422Y-109513527D01*
X112053527Y-109690422D01*
X111914541Y-109898429D01*
X111818805Y-110129555D01*
X111770000Y-110374916D01*
X111770000Y-110414869D01*
X111385000Y-110029869D01*
X111385000Y-108474329D01*
X112346582Y-109435911D01*
%TA.AperFunction,NonConductor*%
D16*
G36*
X112346582Y-109435911D02*
G01*
X112230422Y-109513527D01*
X112053527Y-109690422D01*
X111914541Y-109898429D01*
X111818805Y-110129555D01*
X111770000Y-110374916D01*
X111770000Y-110414869D01*
X111385000Y-110029869D01*
X111385000Y-108474329D01*
X112346582Y-109435911D01*
G37*
%TD.AperFunction*%
D15*
X115865001Y-109744067D02*
X115009005Y-108888072D01*
X115760000Y-108888072D01*
X115865001Y-108877730D01*
X115865001Y-109744067D01*
%TA.AperFunction,NonConductor*%
D16*
G36*
X115865001Y-109744067D02*
G01*
X115009005Y-108888072D01*
X115760000Y-108888072D01*
X115865001Y-108877730D01*
X115865001Y-109744067D01*
G37*
%TD.AperFunction*%
D15*
X117365001Y-97970133D02*
X117365001Y-98009869D01*
X117256220Y-97901088D01*
X117292394Y-97897526D01*
X117365001Y-97970133D01*
%TA.AperFunction,NonConductor*%
D16*
G36*
X117365001Y-97970133D02*
G01*
X117365001Y-98009869D01*
X117256220Y-97901088D01*
X117292394Y-97897526D01*
X117365001Y-97970133D01*
G37*
%TD.AperFunction*%
D15*
X128863589Y-115885000D02*
X129009868Y-115885000D01*
X128759080Y-116135788D01*
X128624480Y-116162562D01*
X128635000Y-116055752D01*
X128635000Y-116055743D01*
X128640490Y-116000001D01*
X128635000Y-115944259D01*
X128635000Y-115839530D01*
X128863589Y-115885000D01*
%TA.AperFunction,NonConductor*%
D16*
G36*
X128863589Y-115885000D02*
G01*
X129009868Y-115885000D01*
X128759080Y-116135788D01*
X128624480Y-116162562D01*
X128635000Y-116055752D01*
X128635000Y-116055743D01*
X128640490Y-116000001D01*
X128635000Y-115944259D01*
X128635000Y-115839530D01*
X128863589Y-115885000D01*
G37*
%TD.AperFunction*%
D15*
X131863589Y-115885000D02*
X132009868Y-115885000D01*
X131759080Y-116135788D01*
X131624480Y-116162562D01*
X131635000Y-116055752D01*
X131635000Y-116055743D01*
X131640490Y-116000001D01*
X131635000Y-115944259D01*
X131635000Y-115839530D01*
X131863589Y-115885000D01*
%TA.AperFunction,NonConductor*%
D16*
G36*
X131863589Y-115885000D02*
G01*
X132009868Y-115885000D01*
X131759080Y-116135788D01*
X131624480Y-116162562D01*
X131635000Y-116055752D01*
X131635000Y-116055743D01*
X131640490Y-116000001D01*
X131635000Y-115944259D01*
X131635000Y-115839530D01*
X131863589Y-115885000D01*
G37*
%TD.AperFunction*%
D15*
X134759079Y-115864212D02*
X135006795Y-116111928D01*
X134629467Y-116111928D01*
X134635000Y-116055752D01*
X134635000Y-116055743D01*
X134640490Y-116000001D01*
X134635000Y-115944259D01*
X134635000Y-115839530D01*
X134759079Y-115864212D01*
%TA.AperFunction,NonConductor*%
D16*
G36*
X134759079Y-115864212D02*
G01*
X135006795Y-116111928D01*
X134629467Y-116111928D01*
X134635000Y-116055752D01*
X134635000Y-116055743D01*
X134640490Y-116000001D01*
X134635000Y-115944259D01*
X134635000Y-115839530D01*
X134759079Y-115864212D01*
G37*
%TD.AperFunction*%
D15*
X136865000Y-113671788D02*
X136908617Y-113891067D01*
X136994176Y-114097624D01*
X137118388Y-114283520D01*
X137199868Y-114365000D01*
X136470132Y-114365000D01*
X136364212Y-114259079D01*
X136331775Y-114096011D01*
X136227371Y-113843957D01*
X136087750Y-113635000D01*
X136865000Y-113635000D01*
X136865000Y-113671788D01*
%TA.AperFunction,NonConductor*%
D16*
G36*
X136865000Y-113671788D02*
G01*
X136908617Y-113891067D01*
X136994176Y-114097624D01*
X137118388Y-114283520D01*
X137199868Y-114365000D01*
X136470132Y-114365000D01*
X136364212Y-114259079D01*
X136331775Y-114096011D01*
X136227371Y-113843957D01*
X136087750Y-113635000D01*
X136865000Y-113635000D01*
X136865000Y-113671788D01*
G37*
%TD.AperFunction*%
D15*
X134973527Y-111309578D02*
X135028949Y-111365000D01*
X134740132Y-111365000D01*
X134902241Y-111202891D01*
X134973527Y-111309578D01*
%TA.AperFunction,NonConductor*%
D16*
G36*
X134973527Y-111309578D02*
G01*
X135028949Y-111365000D01*
X134740132Y-111365000D01*
X134902241Y-111202891D01*
X134973527Y-111309578D01*
G37*
%TD.AperFunction*%
D15*
X137615000Y-110279867D02*
X137220122Y-110674746D01*
X137230000Y-110625084D01*
X137230000Y-110374916D01*
X137181195Y-110129555D01*
X137085459Y-109898429D01*
X136946473Y-109690422D01*
X136769578Y-109513527D01*
X136653418Y-109435911D01*
X137615001Y-108474329D01*
X137615000Y-110279867D01*
%TA.AperFunction,NonConductor*%
D16*
G36*
X137615000Y-110279867D02*
G01*
X137220122Y-110674746D01*
X137230000Y-110625084D01*
X137230000Y-110374916D01*
X137181195Y-110129555D01*
X137085459Y-109898429D01*
X136946473Y-109690422D01*
X136769578Y-109513527D01*
X136653418Y-109435911D01*
X137615001Y-108474329D01*
X137615000Y-110279867D01*
G37*
%TD.AperFunction*%
D15*
X133207419Y-108785764D02*
X133468493Y-108864960D01*
X133671963Y-108885000D01*
X133994067Y-108885000D01*
X133736864Y-109142203D01*
X133693551Y-109177749D01*
X133585688Y-109309180D01*
X133135000Y-109759868D01*
X133135000Y-108747055D01*
X133207419Y-108785764D01*
%TA.AperFunction,NonConductor*%
D16*
G36*
X133207419Y-108785764D02*
G01*
X133468493Y-108864960D01*
X133671963Y-108885000D01*
X133994067Y-108885000D01*
X133736864Y-109142203D01*
X133693551Y-109177749D01*
X133585688Y-109309180D01*
X133135000Y-109759868D01*
X133135000Y-108747055D01*
X133207419Y-108785764D01*
G37*
%TD.AperFunction*%
D15*
X132351928Y-104542940D02*
X131635000Y-105259869D01*
X131635000Y-104970131D01*
X132351928Y-104253204D01*
X132351928Y-104542940D01*
%TA.AperFunction,NonConductor*%
D16*
G36*
X132351928Y-104542940D02*
G01*
X131635000Y-105259869D01*
X131635000Y-104970131D01*
X132351928Y-104253204D01*
X132351928Y-104542940D01*
G37*
%TD.AperFunction*%
M02*
