M48
; DRILL file {KiCad (5.1.10)-1} date 09/03/21 22:44:57
; FORMAT={3:3/ absolute / metric / suppress leading zeros}
; #@! TF.CreationDate,2021-09-03T22:44:57+03:00
; #@! TF.GenerationSoftware,Kicad,Pcbnew,(5.1.10)-1
; #@! TF.FileFunction,NonPlated,1,2,NPTH
FMAT,2
METRIC,TZ
T1C1.000
T2C1.270
T3C3.200
%
G90
G05
T1
X111000Y-113560
X138000Y-113560
T2
X108710Y-98250
X108710Y-107250
X108710Y-109500
X108710Y-118500
X111250Y-98210
X113040Y-101500
X113040Y-110500
X126250Y-98210
X128750Y-98210
X135960Y-101500
X135960Y-110500
X137750Y-98210
X140290Y-98250
X140290Y-107250
X140290Y-109500
X140290Y-118500
T3
X107650Y-122500
X141350Y-122500
T0
M30
