%TF.GenerationSoftware,KiCad,Pcbnew,(5.1.10)-1*%
%TF.CreationDate,2021-09-03T22:45:51+03:00*%
%TF.ProjectId,toolhead_pcb,746f6f6c-6865-4616-945f-7063622e6b69,rev?*%
%TF.SameCoordinates,Original*%
%TF.FileFunction,Soldermask,Bot*%
%TF.FilePolarity,Negative*%
%FSLAX46Y46*%
G04 Gerber Fmt 4.6, Leading zero omitted, Abs format (unit mm)*
G04 Created by KiCad (PCBNEW (5.1.10)-1) date 2021-09-03 22:45:51*
%MOMM*%
%LPD*%
G01*
G04 APERTURE LIST*
%ADD10O,2.020000X1.500000*%
%ADD11C,1.270000*%
%ADD12C,3.200000*%
%ADD13O,1.500000X2.020000*%
%ADD14C,1.500000*%
%ADD15C,1.000000*%
G04 APERTURE END LIST*
D10*
%TO.C,J6*%
X134000000Y-107500000D03*
G36*
G01*
X133240000Y-103750000D02*
X134760000Y-103750000D01*
G75*
G02*
X135010000Y-104000000I0J-250000D01*
G01*
X135010000Y-105000000D01*
G75*
G02*
X134760000Y-105250000I-250000J0D01*
G01*
X133240000Y-105250000D01*
G75*
G02*
X132990000Y-105000000I0J250000D01*
G01*
X132990000Y-104000000D01*
G75*
G02*
X133240000Y-103750000I250000J0D01*
G01*
G37*
D11*
X135960000Y-110500000D03*
X135960000Y-101500000D03*
%TD*%
D12*
%TO.C,H2*%
X107650000Y-122500000D03*
%TD*%
%TO.C,H1*%
X141350000Y-122500000D03*
%TD*%
D11*
%TO.C,J3*%
X113040000Y-110500000D03*
X113040000Y-101500000D03*
G36*
G01*
X115760000Y-108250000D02*
X114240000Y-108250000D01*
G75*
G02*
X113990000Y-108000000I0J250000D01*
G01*
X113990000Y-107000000D01*
G75*
G02*
X114240000Y-106750000I250000J0D01*
G01*
X115760000Y-106750000D01*
G75*
G02*
X116010000Y-107000000I0J-250000D01*
G01*
X116010000Y-108000000D01*
G75*
G02*
X115760000Y-108250000I-250000J0D01*
G01*
G37*
D10*
X115000000Y-104500000D03*
%TD*%
D13*
%TO.C,J4*%
X131750000Y-96250000D03*
G36*
G01*
X135500000Y-95490000D02*
X135500000Y-97010000D01*
G75*
G02*
X135250000Y-97260000I-250000J0D01*
G01*
X134250000Y-97260000D01*
G75*
G02*
X134000000Y-97010000I0J250000D01*
G01*
X134000000Y-95490000D01*
G75*
G02*
X134250000Y-95240000I250000J0D01*
G01*
X135250000Y-95240000D01*
G75*
G02*
X135500000Y-95490000I0J-250000D01*
G01*
G37*
D11*
X128750000Y-98210000D03*
X137750000Y-98210000D03*
%TD*%
D10*
%TO.C,J7*%
X106750000Y-104250000D03*
G36*
G01*
X105990000Y-100500000D02*
X107510000Y-100500000D01*
G75*
G02*
X107760000Y-100750000I0J-250000D01*
G01*
X107760000Y-101750000D01*
G75*
G02*
X107510000Y-102000000I-250000J0D01*
G01*
X105990000Y-102000000D01*
G75*
G02*
X105740000Y-101750000I0J250000D01*
G01*
X105740000Y-100750000D01*
G75*
G02*
X105990000Y-100500000I250000J0D01*
G01*
G37*
D11*
X108710000Y-107250000D03*
X108710000Y-98250000D03*
%TD*%
D10*
%TO.C,J8*%
X106750000Y-115500000D03*
G36*
G01*
X105990000Y-111750000D02*
X107510000Y-111750000D01*
G75*
G02*
X107760000Y-112000000I0J-250000D01*
G01*
X107760000Y-113000000D01*
G75*
G02*
X107510000Y-113250000I-250000J0D01*
G01*
X105990000Y-113250000D01*
G75*
G02*
X105740000Y-113000000I0J250000D01*
G01*
X105740000Y-112000000D01*
G75*
G02*
X105990000Y-111750000I250000J0D01*
G01*
G37*
D11*
X108710000Y-118500000D03*
X108710000Y-109500000D03*
%TD*%
D13*
%TO.C,J9*%
X114250000Y-96250000D03*
X117250000Y-96250000D03*
X120250000Y-96250000D03*
G36*
G01*
X124000000Y-95490000D02*
X124000000Y-97010000D01*
G75*
G02*
X123750000Y-97260000I-250000J0D01*
G01*
X122750000Y-97260000D01*
G75*
G02*
X122500000Y-97010000I0J250000D01*
G01*
X122500000Y-95490000D01*
G75*
G02*
X122750000Y-95240000I250000J0D01*
G01*
X123750000Y-95240000D01*
G75*
G02*
X124000000Y-95490000I0J-250000D01*
G01*
G37*
D11*
X111250000Y-98210000D03*
X126250000Y-98210000D03*
%TD*%
D10*
%TO.C,J1*%
X142250000Y-112500000D03*
G36*
G01*
X143010000Y-116250000D02*
X141490000Y-116250000D01*
G75*
G02*
X141240000Y-116000000I0J250000D01*
G01*
X141240000Y-115000000D01*
G75*
G02*
X141490000Y-114750000I250000J0D01*
G01*
X143010000Y-114750000D01*
G75*
G02*
X143260000Y-115000000I0J-250000D01*
G01*
X143260000Y-116000000D01*
G75*
G02*
X143010000Y-116250000I-250000J0D01*
G01*
G37*
D11*
X140290000Y-109500000D03*
X140290000Y-118500000D03*
%TD*%
D10*
%TO.C,J2*%
X142250000Y-101250000D03*
G36*
G01*
X143010000Y-105000000D02*
X141490000Y-105000000D01*
G75*
G02*
X141240000Y-104750000I0J250000D01*
G01*
X141240000Y-103750000D01*
G75*
G02*
X141490000Y-103500000I250000J0D01*
G01*
X143010000Y-103500000D01*
G75*
G02*
X143260000Y-103750000I0J-250000D01*
G01*
X143260000Y-104750000D01*
G75*
G02*
X143010000Y-105000000I-250000J0D01*
G01*
G37*
D11*
X140290000Y-98250000D03*
X140290000Y-107250000D03*
%TD*%
D14*
%TO.C,J5*%
X114000000Y-114500000D03*
X117000000Y-114500000D03*
X120000000Y-114500000D03*
X123000000Y-114500000D03*
X126000000Y-114500000D03*
X129000000Y-114500000D03*
X132000000Y-114500000D03*
X135000000Y-114500000D03*
X114000000Y-117500000D03*
X117000000Y-117500000D03*
X120000000Y-117500000D03*
X123000000Y-117500000D03*
X126000000Y-117500000D03*
X129000000Y-117500000D03*
X132000000Y-117500000D03*
G36*
G01*
X135750000Y-117000000D02*
X135750000Y-118000000D01*
G75*
G02*
X135500000Y-118250000I-250000J0D01*
G01*
X134500000Y-118250000D01*
G75*
G02*
X134250000Y-118000000I0J250000D01*
G01*
X134250000Y-117000000D01*
G75*
G02*
X134500000Y-116750000I250000J0D01*
G01*
X135500000Y-116750000D01*
G75*
G02*
X135750000Y-117000000I0J-250000D01*
G01*
G37*
D15*
X111000000Y-113560000D03*
X138000000Y-113560000D03*
%TD*%
M02*
