M48
; DRILL file {KiCad (5.1.10)-1} date 09/03/21 22:44:57
; FORMAT={3:3/ absolute / metric / suppress leading zeros}
; #@! TF.CreationDate,2021-09-03T22:44:57+03:00
; #@! TF.GenerationSoftware,Kicad,Pcbnew,(5.1.10)-1
; #@! TF.FileFunction,Plated,1,2,PTH
FMAT,2
METRIC,TZ
T1C1.000
T2C1.020
%
G90
G05
T1
X114000Y-114500
X114000Y-117500
X117000Y-114500
X117000Y-117500
X120000Y-114500
X120000Y-117500
X123000Y-114500
X123000Y-117500
X126000Y-114500
X126000Y-117500
X129000Y-114500
X129000Y-117500
X132000Y-114500
X132000Y-117500
X135000Y-114500
X135000Y-117500
T2
X106750Y-101250
X106750Y-104250
X106750Y-112500
X106750Y-115500
X114250Y-96250
X115000Y-104500
X115000Y-107500
X117250Y-96250
X120250Y-96250
X123250Y-96250
X131750Y-96250
X134000Y-104500
X134000Y-107500
X134750Y-96250
X142250Y-101250
X142250Y-104250
X142250Y-112500
X142250Y-115500
T0
M30
